<svg width="60" height="60" viewBox="0 0 60 60" fill="none" xmlns="http://www.w3.org/2000/svg">
<rect width="60" height="60" rx="30" fill="#5788CD"/>
<path d="M42.4536 13.8554C41.6465 14.8043 40.8288 15.8503 40.0005 16.9934C39.1934 18.1149 38.397 19.2687 37.6111 20.4549C37.7598 20.7999 37.866 21.1666 37.9297 21.5548C37.9934 21.943 38.0253 22.342 38.0253 22.7517C38.0253 23.7007 37.866 24.6712 37.5474 25.6633C37.2288 26.6338 36.8253 27.518 36.3368 28.316C35.8483 29.114 35.2961 29.7717 34.6801 30.2894C34.0642 30.807 33.4589 31.0658 32.8642 31.0658C32.312 31.0658 31.9722 30.8824 31.8447 30.5158C31.7173 30.1276 31.6536 29.6531 31.6536 29.0924C31.6536 28.7258 31.7492 28.3052 31.9403 27.8307C32.1315 27.3347 32.3757 26.8063 32.6731 26.2456C32.9916 25.6848 33.3421 25.1025 33.7244 24.4987C34.1279 23.8948 34.5209 23.2909 34.9032 22.687C35.2005 22.191 35.5297 21.7057 35.8908 21.2313C36.2518 20.7568 36.6235 20.2715 37.0058 19.7755C36.6447 19.2363 36.1775 18.8266 35.604 18.5462L34.5527 19.7108C33.7456 20.6382 32.8642 21.6195 31.9085 22.6547C30.974 23.6899 29.9757 24.7035 28.9138 25.6956C27.8518 26.6661 26.7262 27.5719 25.5368 28.413C24.3686 29.2541 23.1474 29.9335 21.8731 30.4511C21.8518 30.6021 21.8412 30.7423 21.8412 30.8717C21.8412 31.0011 21.8412 31.1412 21.8412 31.2922C21.8412 32.0039 21.958 32.6833 22.1916 33.3303L22.0005 33.395C21.7669 32.748 21.6501 32.0471 21.6501 31.2922C21.6501 31.1628 21.6501 31.0334 21.6501 30.904C21.6501 30.7746 21.6607 30.6452 21.6819 30.5158C20.9386 30.7962 20.1952 31.0118 19.4518 31.1628C18.7085 31.3353 17.9439 31.4216 17.158 31.4216C16.7332 31.4216 16.3085 31.3569 15.8837 31.2275C15.4801 31.0981 15.1191 30.9148 14.8005 30.6776C14.4819 30.4403 14.227 30.16 14.0359 29.8365C13.8447 29.5129 13.7492 29.1463 13.7492 28.7365C13.7492 28.3483 13.8129 28.0033 13.9403 27.7013C14.089 27.3778 14.2589 27.1082 14.4501 26.8926C14.6624 26.6553 14.8748 26.4828 15.0872 26.375C15.3209 26.2456 15.5226 26.1809 15.6925 26.1809C15.9686 26.1809 16.1067 26.3211 16.1067 26.6014C16.1067 26.8171 15.9155 26.9896 15.5332 27.119C15.1509 27.2484 14.7474 27.3131 14.3226 27.3131C14.1739 27.5504 14.0678 27.7984 14.004 28.0572C13.9616 28.2944 13.9403 28.5209 13.9403 28.7365C13.9403 29.1032 14.0253 29.4482 14.1952 29.7717C14.3863 30.0737 14.6306 30.3325 14.9279 30.5482C15.2465 30.7638 15.597 30.9256 15.9793 31.0334C16.3616 31.1628 16.7545 31.2275 17.158 31.2275C17.9439 31.2275 18.7085 31.1412 19.4518 30.9687C20.2164 30.8177 20.9704 30.5913 21.7138 30.2894C21.7987 29.4051 22.0005 28.4885 22.3191 27.5396C22.6589 26.5691 23.0731 25.6201 23.5616 24.6928C24.0713 23.7654 24.6554 22.8811 25.3138 22.04C25.9934 21.1989 26.7262 20.4656 27.512 19.8402C28.2978 19.1932 29.1368 18.6864 30.0288 18.3197C30.9209 17.9315 31.8447 17.7374 32.8005 17.7374C33.8837 17.7374 34.8076 17.9208 35.5722 18.2874C36.7191 17.0365 37.8978 15.8396 39.1085 14.6965C40.3191 13.5319 41.466 12.4967 42.5492 11.5909C43.6324 10.6635 44.6093 9.8871 45.4801 9.26166C46.3722 8.61466 47.0624 8.1941 47.5509 8L47.6465 8.16175C46.9881 8.80876 46.2447 9.57438 45.4164 10.4586C44.5881 11.3429 43.6005 12.4751 42.4536 13.8554ZM32.8005 17.9315C31.3987 17.9315 30.0713 18.3305 28.8182 19.1285C27.5651 19.9049 26.4501 20.9078 25.4731 22.1371C24.5173 23.3448 23.7209 24.6712 23.0837 26.1162C22.4465 27.5396 22.0536 28.8983 21.9049 30.1923C23.1368 29.6747 24.3262 29.0061 25.4731 28.1866C26.6412 27.3455 27.7562 26.4397 28.8182 25.4692C29.8801 24.4987 30.8784 23.5066 31.8129 22.4929C32.7474 21.4577 33.6182 20.4872 34.4253 19.5814L35.4447 18.4491C34.7014 18.1041 33.82 17.9315 32.8005 17.9315ZM35.7633 23.3017C35.5934 23.5821 35.2961 24.0242 34.8713 24.6281C34.4678 25.2319 34.0536 25.8789 33.6288 26.5691C33.204 27.2376 32.8324 27.8954 32.5138 28.5424C32.1952 29.1894 32.0359 29.707 32.0359 30.0953C32.0359 30.3109 32.089 30.4942 32.1952 30.6452C32.3226 30.7962 32.5456 30.8717 32.8642 30.8717C33.4377 30.8717 34.0217 30.6236 34.6164 30.1276C35.2111 29.6316 35.7421 28.9953 36.2093 28.2189C36.6978 27.421 37.0908 26.5475 37.3881 25.5986C37.6855 24.6281 37.8341 23.6791 37.8341 22.7517C37.8341 21.9538 37.7173 21.2528 37.4837 20.649C37.1863 21.1019 36.889 21.5548 36.5916 22.0077C36.3155 22.439 36.0394 22.8704 35.7633 23.3017ZM42.1669 13.726C43.1863 12.4967 44.1102 11.4615 44.9385 10.6204C45.7881 9.77927 46.5209 9.04599 47.1368 8.42055C46.5633 8.72249 45.8518 9.19696 45.0023 9.84397C44.1527 10.4694 43.2182 11.2242 42.1987 12.1085C41.1793 12.9927 40.1067 13.974 38.981 15.0524C37.8766 16.1091 36.7934 17.2198 35.7315 18.3844C36.0288 18.5354 36.2943 18.7187 36.5279 18.9344C36.7616 19.1501 36.9633 19.3765 37.1332 19.6138C37.9828 18.557 38.843 17.5326 39.7138 16.5405C40.6058 15.5484 41.4235 14.6102 42.1669 13.726Z" fill="white"/>
<path d="M48 29.096C46.5345 29.8293 45.2389 30.6057 44.1133 31.4252C43.0089 32.2448 42 33.1182 41.0867 34.0456C41.4478 35.0377 41.6283 36.0837 41.6283 37.1836C41.6283 39.1246 41.2035 40.9578 40.354 42.6831C39.5257 44.4085 38.4212 45.9289 37.0407 47.2445C35.6602 48.5385 34.0885 49.5737 32.3257 50.3501C30.5628 51.105 28.7681 51.4824 26.9416 51.4824C26.5168 51.4824 26.0814 51.45 25.6354 51.3853C25.2106 51.3422 24.7646 51.2667 24.2973 51.1589C23.3204 51.4608 22.269 51.6765 21.1434 51.8059C20.0389 51.9353 18.8177 52 17.4796 52C16.5451 52 15.7274 51.9353 15.0265 51.8059C14.3469 51.6981 13.7841 51.5471 13.3381 51.353C12.892 51.1589 12.5522 50.954 12.3186 50.7383C12.1062 50.5011 12 50.2746 12 50.059C12 49.7355 12.2124 49.4659 12.6372 49.2502C13.0832 49.013 13.7416 48.8944 14.6124 48.8944C15.3133 48.8944 16.0566 48.9699 16.8425 49.1208C17.6496 49.2718 18.4566 49.4551 19.2637 49.6708C20.0708 49.8649 20.8779 50.0805 21.685 50.3178C22.5133 50.555 23.3097 50.7599 24.0743 50.9324C24.5416 50.7599 24.9876 50.5766 25.4124 50.3825C25.8372 50.1668 26.2619 49.9404 26.6867 49.7031C27.8973 48.9699 29.0549 48.0317 30.1593 46.8886C31.2637 45.724 32.3363 44.4732 33.377 43.136C34.4389 41.7989 35.4903 40.4294 36.531 39.0275C37.5717 37.6257 38.6443 36.3209 39.7487 35.1131L40.8319 33.9485C40.3009 32.6545 39.377 31.587 38.0602 30.7459C36.7434 29.9047 34.9487 29.4842 32.6761 29.4842C31.4018 29.4842 30.1487 29.6891 28.9168 30.0988C27.685 30.4871 26.5168 31.0154 25.4124 31.684C24.308 32.3526 23.2885 33.129 22.354 34.0132C21.4195 34.8759 20.6018 35.7709 19.9009 36.6983C19.2212 37.6257 18.6903 38.5638 18.308 39.5128C17.9257 40.4402 17.7345 41.3028 17.7345 42.1008C17.7345 43.1144 18.0425 43.9556 18.6584 44.6241C19.2743 45.2927 20.3257 45.627 21.8124 45.627C23.0867 45.627 24.2867 45.3574 25.4124 44.8182C26.5593 44.2575 27.5469 43.5781 28.3752 42.7802C29.2248 41.9822 29.8938 41.1303 30.3823 40.2245C30.8708 39.2971 31.115 38.4776 31.115 37.7659C31.115 37.2051 30.9345 36.7414 30.5735 36.3748C30.2336 36.0082 29.6708 35.8249 28.885 35.8249C28.2903 35.8249 27.6531 35.965 26.9735 36.2454C26.2938 36.5042 25.6248 36.8816 24.9664 37.3777C24.3292 37.8521 23.7345 38.4237 23.1823 39.0922C22.6301 39.7608 22.1841 40.4833 21.8442 41.2597L21.6531 41.195C21.9929 40.397 22.4389 39.6638 22.9912 38.9952C23.5646 38.305 24.1805 37.7119 24.8389 37.2159C25.5186 36.7199 26.2089 36.3317 26.9097 36.0513C27.6106 35.7709 28.269 35.6307 28.885 35.6307C29.7345 35.6307 30.3504 35.8356 30.7327 36.2454C31.115 36.6336 31.3062 37.1404 31.3062 37.7659C31.3062 38.4991 31.0513 39.3295 30.5416 40.2568C30.0531 41.1842 29.3735 42.0685 28.5027 42.9096C27.6531 43.7291 26.6549 44.4192 25.508 44.98C24.3611 45.5407 23.1292 45.8211 21.8124 45.8211C21.0478 45.8211 20.3788 45.7133 19.8053 45.4976C19.2319 45.2819 18.754 45.0016 18.3717 44.6565C17.9894 44.2898 17.7027 43.8693 17.5115 43.3948C17.3416 42.8988 17.2566 42.3812 17.2566 41.842C17.2566 40.9146 17.4372 39.9657 17.7982 38.9952C18.1805 38.0247 18.7009 37.0757 19.3593 36.1484C20.0389 35.221 20.846 34.3475 21.7805 33.528C22.715 32.6869 23.7558 31.9536 24.9027 31.3282C26.0496 30.7027 27.2708 30.2067 28.5664 29.84C29.8832 29.4734 31.2531 29.2901 32.6761 29.2901C33.823 29.2901 34.8425 29.4087 35.7345 29.6459C36.6478 29.8616 37.4443 30.1743 38.1239 30.5841C38.8248 30.9723 39.4089 31.4468 39.8761 32.0075C40.3434 32.5467 40.715 33.1506 40.9912 33.8191C41.9257 32.8918 42.9451 32.0291 44.0496 31.2311C45.154 30.4331 46.4496 29.6567 47.9363 28.9019L48 29.096ZM41.4372 37.1836C41.4372 36.1052 41.2673 35.1131 40.9274 34.2073C40.7575 34.3799 40.5876 34.5632 40.4177 34.7573C40.269 34.9298 40.1204 35.1024 39.9717 35.2749C38.931 36.4826 37.954 37.7982 37.0407 39.2216C36.1487 40.6235 35.2142 42.0145 34.2372 43.3948C33.2602 44.7535 32.177 46.0368 30.9876 47.2445C29.8195 48.4307 28.4389 49.412 26.846 50.1884C26.485 50.3609 26.1239 50.5227 25.7628 50.6736C25.423 50.803 25.0619 50.9217 24.6796 51.0295C25.5292 51.202 26.2832 51.2883 26.9416 51.2883C28.7681 51.2883 30.5522 50.9109 32.2938 50.156C34.0354 49.4012 35.5752 48.3768 36.9133 47.0828C38.2726 45.7887 39.3664 44.2898 40.1947 42.5861C41.023 40.8823 41.4372 39.0814 41.4372 37.1836ZM17.4796 51.8059C18.7327 51.8059 19.8584 51.7412 20.8566 51.6118C21.8549 51.4824 22.7894 51.2883 23.6602 51.0295C22.8956 50.857 22.1097 50.6629 21.3027 50.4472C20.5168 50.2099 19.731 49.9943 18.9451 49.8002C18.1805 49.6061 17.4265 49.4443 16.6832 49.3149C15.9398 49.164 15.2496 49.0885 14.6124 49.0885C13.8053 49.0885 13.2 49.1855 12.7965 49.3796C12.3929 49.5737 12.1912 49.8002 12.1912 50.059C12.1912 50.4688 12.6159 50.857 13.4655 51.2236C14.3363 51.6118 15.6743 51.8059 17.4796 51.8059Z" fill="white"/>
</svg>
