<svg width="18" height="18" viewBox="0 0 18 18" fill="none" xmlns="http://www.w3.org/2000/svg">
<mask id="mask0_628_5370" style="mask-type:alpha" maskUnits="userSpaceOnUse" x="0" y="0" width="18" height="18">
<circle cx="9" cy="9" r="9" fill="black"/>
</mask>
<g mask="url(#mask0_628_5370)">
<rect x="-1" y="-1" width="20" height="20" fill="#5788CD"/>
<path d="M12.4719 3.75C12.2186 4.04333 11.9619 4.36667 11.7019 4.72C11.4486 5.06667 11.1986 5.42333 10.9519 5.79C10.9986 5.89667 11.0319 6.01 11.0519 6.13C11.0719 6.25 11.0819 6.37333 11.0819 6.5C11.0819 6.79333 11.0319 7.09333 10.9319 7.4C10.8319 7.7 10.7052 7.97333 10.5519 8.22C10.3986 8.46667 10.2252 8.67 10.0319 8.83C9.83858 8.99 9.64858 9.07 9.46191 9.07C9.28858 9.07 9.18191 9.01333 9.14191 8.9C9.10191 8.78 9.08191 8.63333 9.08191 8.46C9.08191 8.34667 9.11191 8.21667 9.17191 8.07C9.23191 7.91667 9.30858 7.75333 9.40191 7.58C9.50191 7.40667 9.61191 7.22667 9.73191 7.04C9.85858 6.85333 9.98191 6.66667 10.1019 6.48C10.1952 6.32667 10.2986 6.17667 10.4119 6.03C10.5252 5.88333 10.6419 5.73333 10.7619 5.58C10.6486 5.41333 10.5019 5.28667 10.3219 5.2L9.99191 5.56C9.73858 5.84667 9.46191 6.15 9.16191 6.47C8.86858 6.79 8.55525 7.10333 8.22191 7.41C7.88858 7.71 7.53525 7.99 7.16191 8.25C6.79525 8.51 6.41191 8.72 6.01191 8.88C6.00525 8.92667 6.00191 8.97 6.00191 9.01C6.00191 9.05 6.00191 9.09333 6.00191 9.14C6.00191 9.36 6.03858 9.57 6.11191 9.77L6.05191 9.79C5.97858 9.59 5.94191 9.37333 5.94191 9.14C5.94191 9.1 5.94191 9.06 5.94191 9.02C5.94191 8.98 5.94525 8.94 5.95191 8.9C5.71858 8.98667 5.48525 9.05333 5.25191 9.1C5.01858 9.15333 4.77858 9.18 4.53191 9.18C4.39858 9.18 4.26525 9.16 4.13191 9.12C4.00525 9.08 3.89191 9.02333 3.79191 8.95C3.69191 8.87667 3.61191 8.79 3.55191 8.69C3.49191 8.59 3.46191 8.47667 3.46191 8.35C3.46191 8.23 3.48191 8.12333 3.52191 8.03C3.56858 7.93 3.62191 7.84667 3.68191 7.78C3.74858 7.70667 3.81525 7.65333 3.88191 7.62C3.95525 7.58 4.01858 7.56 4.07191 7.56C4.15858 7.56 4.20191 7.60333 4.20191 7.69C4.20191 7.75667 4.14191 7.81 4.02191 7.85C3.90191 7.89 3.77525 7.91 3.64191 7.91C3.59525 7.98333 3.56191 8.06 3.54191 8.14C3.52858 8.21333 3.52191 8.28333 3.52191 8.35C3.52191 8.46333 3.54858 8.57 3.60191 8.67C3.66191 8.76333 3.73858 8.84333 3.83191 8.91C3.93191 8.97667 4.04191 9.02667 4.16191 9.06C4.28191 9.1 4.40525 9.12 4.53191 9.12C4.77858 9.12 5.01858 9.09333 5.25191 9.04C5.49191 8.99333 5.72858 8.92333 5.96191 8.83C5.98858 8.55667 6.05191 8.27333 6.15191 7.98C6.25858 7.68 6.38858 7.38667 6.54191 7.1C6.70191 6.81333 6.88525 6.54 7.09191 6.28C7.30525 6.02 7.53525 5.79333 7.78191 5.6C8.02858 5.4 8.29191 5.24333 8.57191 5.13C8.85191 5.01 9.14191 4.95 9.44191 4.95C9.78191 4.95 10.0719 5.00667 10.3119 5.12C10.6719 4.73333 11.0419 4.36333 11.4219 4.01C11.8019 3.65 12.1619 3.33 12.5019 3.05C12.8419 2.76333 13.1486 2.52333 13.4219 2.33C13.7019 2.13 13.9186 2 14.0719 1.94L14.1019 1.99C13.8952 2.19 13.6619 2.42667 13.4019 2.7C13.1419 2.97333 12.8319 3.32333 12.4719 3.75ZM9.44191 5.01C9.00191 5.01 8.58525 5.13333 8.19191 5.38C7.79858 5.62 7.44858 5.93 7.14191 6.31C6.84191 6.68333 6.59191 7.09333 6.39191 7.54C6.19191 7.98 6.06858 8.4 6.02191 8.8C6.40858 8.64 6.78191 8.43333 7.14191 8.18C7.50858 7.92 7.85858 7.64 8.19191 7.34C8.52525 7.04 8.83858 6.73333 9.13191 6.42C9.42525 6.1 9.69858 5.8 9.95191 5.52L10.2719 5.17C10.0386 5.06333 9.76191 5.01 9.44191 5.01ZM10.3719 6.67C10.3186 6.75667 10.2252 6.89333 10.0919 7.08C9.96525 7.26667 9.83525 7.46667 9.70191 7.68C9.56858 7.88667 9.45191 8.09 9.35191 8.29C9.25191 8.49 9.20191 8.65 9.20191 8.77C9.20191 8.83667 9.21858 8.89333 9.25191 8.94C9.29191 8.98667 9.36191 9.01 9.46191 9.01C9.64191 9.01 9.82525 8.93333 10.0119 8.78C10.1986 8.62667 10.3652 8.43 10.5119 8.19C10.6652 7.94333 10.7886 7.67333 10.8819 7.38C10.9752 7.08 11.0219 6.78667 11.0219 6.5C11.0219 6.25333 10.9852 6.03667 10.9119 5.85C10.8186 5.99 10.7252 6.13 10.6319 6.27C10.5452 6.40333 10.4586 6.53667 10.3719 6.67ZM12.3819 3.71C12.7019 3.33 12.9919 3.01 13.2519 2.75C13.5186 2.49 13.7486 2.26333 13.9419 2.07C13.7619 2.16333 13.5386 2.31 13.2719 2.51C13.0052 2.70333 12.7119 2.93667 12.3919 3.21C12.0719 3.48333 11.7352 3.78667 11.3819 4.12C11.0352 4.44667 10.6952 4.79 10.3619 5.15C10.4552 5.19667 10.5386 5.25333 10.6119 5.32C10.6852 5.38667 10.7486 5.45667 10.8019 5.53C11.0686 5.20333 11.3386 4.88667 11.6119 4.58C11.8919 4.27333 12.1486 3.98333 12.3819 3.71Z" fill="white"/>
<path d="M14.3518 8.23C13.8918 8.45667 13.4851 8.69667 13.1318 8.95C12.7851 9.20333 12.4684 9.47333 12.1818 9.76C12.2951 10.0667 12.3518 10.39 12.3518 10.73C12.3518 11.33 12.2184 11.8967 11.9518 12.43C11.6918 12.9633 11.3451 13.4333 10.9118 13.84C10.4784 14.24 9.98509 14.56 9.43176 14.8C8.87842 15.0333 8.31509 15.15 7.74176 15.15C7.60842 15.15 7.47176 15.14 7.33176 15.12C7.19842 15.1067 7.05842 15.0833 6.91176 15.05C6.60509 15.1433 6.27509 15.21 5.92176 15.25C5.57509 15.29 5.19176 15.31 4.77176 15.31C4.47842 15.31 4.22176 15.29 4.00176 15.25C3.78842 15.2167 3.61176 15.17 3.47176 15.11C3.33176 15.05 3.22509 14.9867 3.15176 14.92C3.08509 14.8467 3.05176 14.7767 3.05176 14.71C3.05176 14.61 3.11842 14.5267 3.25176 14.46C3.39176 14.3867 3.59842 14.35 3.87176 14.35C4.09176 14.35 4.32509 14.3733 4.57176 14.42C4.82509 14.4667 5.07842 14.5233 5.33176 14.59C5.58509 14.65 5.83842 14.7167 6.09176 14.79C6.35176 14.8633 6.60176 14.9267 6.84176 14.98C6.98842 14.9267 7.12842 14.87 7.26176 14.81C7.39509 14.7433 7.52842 14.6733 7.66176 14.6C8.04176 14.3733 8.40509 14.0833 8.75176 13.73C9.09842 13.37 9.43509 12.9833 9.76176 12.57C10.0951 12.1567 10.4251 11.7333 10.7518 11.3C11.0784 10.8667 11.4151 10.4633 11.7618 10.09L12.1018 9.73C11.9351 9.33 11.6451 9 11.2318 8.74C10.8184 8.48 10.2551 8.35 9.54176 8.35C9.14176 8.35 8.74842 8.41333 8.36176 8.54C7.97509 8.66 7.60842 8.82333 7.26176 9.03C6.91509 9.23667 6.59509 9.47667 6.30176 9.75C6.00842 10.0167 5.75176 10.2933 5.53176 10.58C5.31842 10.8667 5.15176 11.1567 5.03176 11.45C4.91176 11.7367 4.85176 12.0033 4.85176 12.25C4.85176 12.5633 4.94842 12.8233 5.14176 13.03C5.33509 13.2367 5.66509 13.34 6.13176 13.34C6.53176 13.34 6.90842 13.2567 7.26176 13.09C7.62176 12.9167 7.93176 12.7067 8.19176 12.46C8.45842 12.2133 8.66842 11.95 8.82176 11.67C8.97509 11.3833 9.05176 11.13 9.05176 10.91C9.05176 10.7367 8.99509 10.5933 8.88176 10.48C8.77509 10.3667 8.59842 10.31 8.35176 10.31C8.16509 10.31 7.96509 10.3533 7.75176 10.44C7.53842 10.52 7.32842 10.6367 7.12176 10.79C6.92176 10.9367 6.73509 11.1133 6.56176 11.32C6.38842 11.5267 6.24842 11.75 6.14176 11.99L6.08176 11.97C6.18842 11.7233 6.32842 11.4967 6.50176 11.29C6.68176 11.0767 6.87509 10.8933 7.08176 10.74C7.29509 10.5867 7.51176 10.4667 7.73176 10.38C7.95176 10.2933 8.15842 10.25 8.35176 10.25C8.61842 10.25 8.81176 10.3133 8.93176 10.44C9.05176 10.56 9.11176 10.7167 9.11176 10.91C9.11176 11.1367 9.03176 11.3933 8.87176 11.68C8.71842 11.9667 8.50509 12.24 8.23176 12.5C7.96509 12.7533 7.65176 12.9667 7.29176 13.14C6.93176 13.3133 6.54509 13.4 6.13176 13.4C5.89176 13.4 5.68176 13.3667 5.50176 13.3C5.32176 13.2333 5.17176 13.1467 5.05176 13.04C4.93176 12.9267 4.84176 12.7967 4.78176 12.65C4.72842 12.4967 4.70176 12.3367 4.70176 12.17C4.70176 11.8833 4.75842 11.59 4.87176 11.29C4.99176 10.99 5.15509 10.6967 5.36176 10.41C5.57509 10.1233 5.82842 9.85333 6.12176 9.6C6.41509 9.34 6.74176 9.11333 7.10176 8.92C7.46176 8.72667 7.84509 8.57333 8.25176 8.46C8.66509 8.34667 9.09509 8.29 9.54176 8.29C9.90176 8.29 10.2218 8.32667 10.5018 8.4C10.7884 8.46667 11.0384 8.56333 11.2518 8.69C11.4718 8.81 11.6551 8.95667 11.8018 9.13C11.9484 9.29667 12.0651 9.48333 12.1518 9.69C12.4451 9.40333 12.7651 9.13667 13.1118 8.89C13.4584 8.64333 13.8651 8.40333 14.3318 8.17L14.3518 8.23ZM12.2918 10.73C12.2918 10.3967 12.2384 10.09 12.1318 9.81C12.0784 9.86333 12.0251 9.92 11.9718 9.98C11.9251 10.0333 11.8784 10.0867 11.8318 10.14C11.5051 10.5133 11.1984 10.92 10.9118 11.36C10.6318 11.7933 10.3384 12.2233 10.0318 12.65C9.72509 13.07 9.38509 13.4667 9.01176 13.84C8.64509 14.2067 8.21176 14.51 7.71176 14.75C7.59842 14.8033 7.48509 14.8533 7.37176 14.9C7.26509 14.94 7.15176 14.9767 7.03176 15.01C7.29842 15.0633 7.53509 15.09 7.74176 15.09C8.31509 15.09 8.87509 14.9733 9.42176 14.74C9.96842 14.5067 10.4518 14.19 10.8718 13.79C11.2984 13.39 11.6418 12.9267 11.9018 12.4C12.1618 11.8733 12.2918 11.3167 12.2918 10.73ZM4.77176 15.25C5.16509 15.25 5.51842 15.23 5.83176 15.19C6.14509 15.15 6.43842 15.09 6.71176 15.01C6.47176 14.9567 6.22509 14.8967 5.97176 14.83C5.72509 14.7567 5.47842 14.69 5.23176 14.63C4.99176 14.57 4.75509 14.52 4.52176 14.48C4.28842 14.4333 4.07176 14.41 3.87176 14.41C3.61842 14.41 3.42842 14.44 3.30176 14.5C3.17509 14.56 3.11176 14.63 3.11176 14.71C3.11176 14.8367 3.24509 14.9567 3.51176 15.07C3.78509 15.19 4.20509 15.25 4.77176 15.25Z" fill="white"/>
</g>
</svg>
