<svg xmlns="http://www.w3.org/2000/svg" width="24" height="24" viewBox="0 0 24 24" fill="none">
  <path d="M12.0002 13.5C11.2586 13.5 10.5335 13.2801 9.91686 12.868C9.30017 12.456 8.81953 11.8703 8.5357 11.1851C8.25187 10.4998 8.17761 9.74584 8.3223 9.01841C8.467 8.29098 8.82415 7.6228 9.3486 7.09835C9.87304 6.5739 10.5412 6.21675 11.2687 6.07206C11.9961 5.92736 12.7501 6.00162 13.4353 6.28545C14.1205 6.56928 14.7062 7.04993 15.1183 7.66661C15.5303 8.2833 15.7502 9.00832 15.7502 9.75C15.7491 10.7442 15.3537 11.6974 14.6506 12.4004C13.9476 13.1034 12.9945 13.4989 12.0002 13.5ZM12.0002 7.5C11.5552 7.5 11.1202 7.63196 10.7502 7.8792C10.3802 8.12643 10.0918 8.47783 9.92152 8.88896C9.75122 9.3001 9.70666 9.7525 9.79348 10.189C9.8803 10.6254 10.0946 11.0263 10.4093 11.341C10.7239 11.6557 11.1248 11.87 11.5613 11.9568C11.9978 12.0436 12.4502 11.999 12.8613 11.8287C13.2724 11.6584 13.6238 11.37 13.8711 11C14.1183 10.63 14.2502 10.195 14.2502 9.75C14.2496 9.15347 14.0123 8.58155 13.5905 8.15974C13.1687 7.73792 12.5968 7.50066 12.0002 7.5Z" fill="black"/>
  <path d="M12 22.5L5.67338 15.0385C5.63746 14.9957 5.41223 14.6999 5.41223 14.6999C4.33141 13.2763 3.74748 11.5374 3.75001 9.75C3.75001 7.56196 4.6192 5.46354 6.16638 3.91637C7.71355 2.36919 9.81197 1.5 12 1.5C14.188 1.5 16.2865 2.36919 17.8336 3.91637C19.3808 5.46354 20.25 7.56196 20.25 9.75C20.2527 11.5367 19.6692 13.2749 18.5889 14.698L18.5878 14.6999C18.5878 14.6999 18.3628 14.9956 18.3293 15.0354L12 22.5ZM6.60938 13.7963C6.61013 13.7968 6.78443 14.0274 6.82433 14.077L12 20.1809L17.1825 14.0684C17.2154 14.027 17.3912 13.7948 17.3916 13.7942C18.2746 12.631 18.7517 11.2103 18.75 9.75C18.75 7.95979 18.0388 6.2429 16.773 4.97703C15.5071 3.71116 13.7902 3 12 3C10.2098 3 8.49291 3.71116 7.22704 4.97703C5.96117 6.2429 5.25001 7.95979 5.25001 9.75C5.24835 11.2111 5.72587 12.6325 6.60938 13.7963Z" fill="black"/>
</svg>