<svg width="44" height="44" viewBox="0 0 44 44" fill="none" xmlns="http://www.w3.org/2000/svg">
<mask id="mask0_725_1858" style="mask-type:alpha" maskUnits="userSpaceOnUse" x="0" y="0" width="44" height="44">
<circle cx="22" cy="22" r="22" fill="black"/>
</mask>
<g mask="url(#mask0_725_1858)">
<rect x="-2.44434" y="-2.44446" width="48.8889" height="48.8889" fill="#5788CD"/>
<path d="M29.9336 9.39997C29.3256 10.104 28.7096 10.88 28.0856 11.728C27.4776 12.56 26.8776 13.416 26.2856 14.296C26.3976 14.552 26.4776 14.824 26.5256 15.112C26.5736 15.4 26.5976 15.696 26.5976 16C26.5976 16.704 26.4776 17.424 26.2376 18.16C25.9976 18.88 25.6936 19.536 25.3256 20.128C24.9576 20.72 24.5416 21.208 24.0776 21.592C23.6136 21.976 23.1576 22.168 22.7096 22.168C22.2936 22.168 22.0376 22.032 21.9416 21.76C21.8456 21.472 21.7976 21.12 21.7976 20.704C21.7976 20.432 21.8696 20.12 22.0136 19.768C22.1576 19.4 22.3416 19.008 22.5656 18.592C22.8056 18.176 23.0696 17.744 23.3576 17.296C23.6616 16.848 23.9576 16.4 24.2456 15.952C24.4696 15.584 24.7176 15.224 24.9896 14.872C25.2616 14.52 25.5416 14.16 25.8296 13.792C25.5576 13.392 25.2056 13.088 24.7736 12.88L23.9816 13.744C23.3736 14.432 22.7096 15.16 21.9896 15.928C21.2856 16.696 20.5336 17.448 19.7336 18.184C18.9336 18.904 18.0856 19.576 17.1896 20.2C16.3096 20.824 15.3896 21.328 14.4296 21.712C14.4136 21.824 14.4056 21.928 14.4056 22.024C14.4056 22.12 14.4056 22.224 14.4056 22.336C14.4056 22.864 14.4936 23.368 14.6696 23.848L14.5256 23.896C14.3496 23.416 14.2616 22.896 14.2616 22.336C14.2616 22.24 14.2616 22.144 14.2616 22.048C14.2616 21.952 14.2696 21.856 14.2856 21.76C13.7256 21.968 13.1656 22.128 12.6056 22.24C12.0456 22.368 11.4696 22.432 10.8776 22.432C10.5576 22.432 10.2376 22.384 9.91757 22.288C9.61357 22.192 9.34157 22.056 9.10157 21.88C8.86157 21.704 8.66957 21.496 8.52557 21.256C8.38157 21.016 8.30957 20.744 8.30957 20.44C8.30957 20.152 8.35757 19.896 8.45357 19.672C8.56557 19.432 8.69357 19.232 8.83757 19.072C8.99757 18.896 9.15757 18.768 9.31757 18.688C9.49357 18.592 9.64557 18.544 9.77357 18.544C9.98157 18.544 10.0856 18.648 10.0856 18.856C10.0856 19.016 9.94157 19.144 9.65357 19.24C9.36557 19.336 9.06157 19.384 8.74157 19.384C8.62957 19.56 8.54957 19.744 8.50157 19.936C8.46957 20.112 8.45357 20.28 8.45357 20.44C8.45357 20.712 8.51757 20.968 8.64557 21.208C8.78957 21.432 8.97357 21.624 9.19757 21.784C9.43757 21.944 9.70157 22.064 9.98957 22.144C10.2776 22.24 10.5736 22.288 10.8776 22.288C11.4696 22.288 12.0456 22.224 12.6056 22.096C13.1816 21.984 13.7496 21.816 14.3096 21.592C14.3736 20.936 14.5256 20.256 14.7656 19.552C15.0216 18.832 15.3336 18.128 15.7016 17.44C16.0856 16.752 16.5256 16.096 17.0216 15.472C17.5336 14.848 18.0856 14.304 18.6776 13.84C19.2696 13.36 19.9016 12.984 20.5736 12.712C21.2456 12.424 21.9416 12.28 22.6616 12.28C23.4776 12.28 24.1736 12.416 24.7496 12.688C25.6136 11.76 26.5016 10.872 27.4136 10.024C28.3256 9.15997 29.1896 8.39197 30.0056 7.71997C30.8216 7.03197 31.5576 6.45597 32.2136 5.99197C32.8856 5.51197 33.4056 5.19997 33.7736 5.05597L33.8456 5.17597C33.3496 5.65597 32.7896 6.22397 32.1656 6.87997C31.5416 7.53597 30.7976 8.37597 29.9336 9.39997ZM22.6616 12.424C21.6056 12.424 20.6056 12.72 19.6616 13.312C18.7176 13.888 17.8776 14.632 17.1416 15.544C16.4216 16.44 15.8216 17.424 15.3416 18.496C14.8616 19.552 14.5656 20.56 14.4536 21.52C15.3816 21.136 16.2776 20.64 17.1416 20.032C18.0216 19.408 18.8616 18.736 19.6616 18.016C20.4616 17.296 21.2136 16.56 21.9176 15.808C22.6216 15.04 23.2776 14.32 23.8856 13.648L24.6536 12.808C24.0936 12.552 23.4296 12.424 22.6616 12.424ZM24.8936 16.408C24.7656 16.616 24.5416 16.944 24.2216 17.392C23.9176 17.84 23.6056 18.32 23.2856 18.832C22.9656 19.328 22.6856 19.816 22.4456 20.296C22.2056 20.776 22.0856 21.16 22.0856 21.448C22.0856 21.608 22.1256 21.744 22.2056 21.856C22.3016 21.968 22.4696 22.024 22.7096 22.024C23.1416 22.024 23.5816 21.84 24.0296 21.472C24.4776 21.104 24.8776 20.632 25.2296 20.056C25.5976 19.464 25.8936 18.816 26.1176 18.112C26.3416 17.392 26.4536 16.688 26.4536 16C26.4536 15.408 26.3656 14.888 26.1896 14.44C25.9656 14.776 25.7416 15.112 25.5176 15.448C25.3096 15.768 25.1016 16.088 24.8936 16.408ZM29.7176 9.30397C30.4856 8.39197 31.1816 7.62397 31.8056 6.99997C32.4456 6.37597 32.9976 5.83197 33.4616 5.36797C33.0296 5.59197 32.4936 5.94397 31.8536 6.42397C31.2136 6.88797 30.5096 7.44797 29.7416 8.10397C28.9736 8.75997 28.1656 9.48797 27.3176 10.288C26.4856 11.072 25.6696 11.896 24.8696 12.76C25.0936 12.872 25.2936 13.008 25.4696 13.168C25.6456 13.328 25.7976 13.496 25.9256 13.672C26.5656 12.888 27.2136 12.128 27.8696 11.392C28.5416 10.656 29.1576 9.95997 29.7176 9.30397Z" fill="white"/>
<path d="M34.4452 20.4186C33.3412 20.9626 32.3652 21.5386 31.5172 22.1466C30.6852 22.7546 29.9252 23.4026 29.2372 24.0906C29.5092 24.8266 29.6452 25.6026 29.6452 26.4186C29.6452 27.8586 29.3252 29.2186 28.6852 30.4986C28.0612 31.7786 27.2292 32.9066 26.1892 33.8826C25.1492 34.8426 23.9652 35.6106 22.6372 36.1866C21.3092 36.7466 19.9572 37.0266 18.5812 37.0266C18.2612 37.0266 17.9332 37.0026 17.5972 36.9546C17.2772 36.9226 16.9412 36.8666 16.5892 36.7866C15.8532 37.0106 15.0612 37.1706 14.2132 37.2666C13.3812 37.3626 12.4612 37.4106 11.4532 37.4106C10.7492 37.4106 10.1332 37.3626 9.6052 37.2666C9.0932 37.1866 8.6692 37.0746 8.3332 36.9306C7.9972 36.7866 7.7412 36.6346 7.5652 36.4746C7.4052 36.2986 7.3252 36.1306 7.3252 35.9706C7.3252 35.7306 7.4852 35.5306 7.8052 35.3706C8.1412 35.1946 8.6372 35.1066 9.2932 35.1066C9.8212 35.1066 10.3812 35.1626 10.9732 35.2746C11.5812 35.3866 12.1892 35.5226 12.7972 35.6826C13.4052 35.8266 14.0132 35.9866 14.6212 36.1626C15.2452 36.3386 15.8452 36.4906 16.4212 36.6186C16.7732 36.4906 17.1092 36.3546 17.4292 36.2106C17.7492 36.0506 18.0692 35.8826 18.3892 35.7066C19.3012 35.1626 20.1732 34.4666 21.0052 33.6186C21.8372 32.7546 22.6452 31.8266 23.4292 30.8346C24.2292 29.8426 25.0212 28.8266 25.8052 27.7866C26.5892 26.7466 27.3972 25.7786 28.2292 24.8826L29.0452 24.0186C28.6452 23.0586 27.9492 22.2666 26.9572 21.6426C25.9652 21.0186 24.6132 20.7066 22.9012 20.7066C21.9412 20.7066 20.9972 20.8586 20.0692 21.1626C19.1412 21.4506 18.2612 21.8426 17.4292 22.3386C16.5972 22.8346 15.8292 23.4106 15.1252 24.0666C14.4212 24.7066 13.8052 25.3706 13.2772 26.0586C12.7652 26.7466 12.3652 27.4426 12.0772 28.1466C11.7892 28.8346 11.6452 29.4746 11.6452 30.0666C11.6452 30.8186 11.8772 31.4426 12.3412 31.9386C12.8052 32.4346 13.5972 32.6826 14.7172 32.6826C15.6772 32.6826 16.5812 32.4826 17.4292 32.0826C18.2932 31.6666 19.0372 31.1626 19.6612 30.5706C20.3012 29.9786 20.8052 29.3466 21.1732 28.6746C21.5412 27.9866 21.7252 27.3786 21.7252 26.8506C21.7252 26.4346 21.5892 26.0906 21.3172 25.8186C21.0612 25.5466 20.6372 25.4106 20.0452 25.4106C19.5972 25.4106 19.1172 25.5146 18.6052 25.7226C18.0932 25.9146 17.5892 26.1946 17.0932 26.5626C16.6132 26.9146 16.1652 27.3386 15.7492 27.8346C15.3332 28.3306 14.9972 28.8666 14.7412 29.4426L14.5972 29.3946C14.8532 28.8026 15.1892 28.2586 15.6052 27.7626C16.0372 27.2506 16.5012 26.8106 16.9972 26.4426C17.5092 26.0746 18.0292 25.7866 18.5572 25.5786C19.0852 25.3706 19.5812 25.2666 20.0452 25.2666C20.6852 25.2666 21.1492 25.4186 21.4372 25.7226C21.7252 26.0106 21.8692 26.3866 21.8692 26.8506C21.8692 27.3946 21.6772 28.0106 21.2932 28.6986C20.9252 29.3866 20.4132 30.0426 19.7572 30.6666C19.1172 31.2746 18.3652 31.7866 17.5012 32.2026C16.6372 32.6186 15.7092 32.8266 14.7172 32.8266C14.1412 32.8266 13.6372 32.7466 13.2052 32.5866C12.7732 32.4266 12.4132 32.2186 12.1252 31.9626C11.8372 31.6906 11.6212 31.3786 11.4772 31.0266C11.3492 30.6586 11.2852 30.2746 11.2852 29.8746C11.2852 29.1866 11.4212 28.4826 11.6932 27.7626C11.9812 27.0426 12.3732 26.3386 12.8692 25.6506C13.3812 24.9626 13.9892 24.3146 14.6932 23.7066C15.3972 23.0826 16.1812 22.5386 17.0452 22.0746C17.9092 21.6106 18.8292 21.2426 19.8052 20.9706C20.7972 20.6986 21.8292 20.5626 22.9012 20.5626C23.7652 20.5626 24.5332 20.6506 25.2052 20.8266C25.8932 20.9866 26.4932 21.2186 27.0052 21.5226C27.5332 21.8106 27.9732 22.1626 28.3252 22.5786C28.6772 22.9786 28.9572 23.4266 29.1652 23.9226C29.8692 23.2346 30.6372 22.5946 31.4692 22.0026C32.3012 21.4106 33.2772 20.8346 34.3972 20.2746L34.4452 20.4186ZM29.5012 26.4186C29.5012 25.6186 29.3732 24.8826 29.1172 24.2106C28.9892 24.3386 28.8612 24.4746 28.7332 24.6186C28.6212 24.7466 28.5092 24.8746 28.3972 25.0026C27.6132 25.8986 26.8772 26.8746 26.1892 27.9306C25.5172 28.9706 24.8132 30.0026 24.0772 31.0266C23.3412 32.0346 22.5252 32.9866 21.6292 33.8826C20.7492 34.7626 19.7092 35.4906 18.5092 36.0666C18.2372 36.1946 17.9652 36.3146 17.6932 36.4266C17.4372 36.5226 17.1652 36.6106 16.8772 36.6906C17.5172 36.8186 18.0852 36.8826 18.5812 36.8826C19.9572 36.8826 21.3012 36.6026 22.6132 36.0426C23.9252 35.4826 25.0852 34.7226 26.0932 33.7626C27.1172 32.8026 27.9412 31.6906 28.5652 30.4266C29.1892 29.1626 29.5012 27.8266 29.5012 26.4186ZM11.4532 37.2666C12.3972 37.2666 13.2452 37.2186 13.9972 37.1226C14.7492 37.0266 15.4532 36.8826 16.1092 36.6906C15.5332 36.5626 14.9412 36.4186 14.3332 36.2586C13.7412 36.0826 13.1492 35.9226 12.5572 35.7786C11.9812 35.6346 11.4132 35.5146 10.8532 35.4186C10.2932 35.3066 9.7732 35.2506 9.2932 35.2506C8.6852 35.2506 8.2292 35.3226 7.9252 35.4666C7.6212 35.6106 7.4692 35.7786 7.4692 35.9706C7.4692 36.2746 7.7892 36.5626 8.4292 36.8346C9.0852 37.1226 10.0932 37.2666 11.4532 37.2666Z" fill="white"/>
</g>
</svg>
