<svg width="60" height="61" viewBox="0 0 60 61" fill="none" xmlns="http://www.w3.org/2000/svg">
<path fill-rule="evenodd" clip-rule="evenodd" d="M30 10.5C24.475 10.5 20 14.975 20 20.5C20 26.025 24.475 30.5 30 30.5C35.525 30.5 40 26.025 40 20.5C40 14.975 35.525 10.5 30 10.5ZM35 20.5C35 17.75 32.75 15.5 30 15.5C27.25 15.5 25 17.75 25 20.5C25 23.25 27.25 25.5 30 25.5C32.75 25.5 35 23.25 35 20.5ZM45 43C44.5 41.225 36.75 38 30 38C23.25 38 15.5 41.225 15 43.025V45.5H45V43ZM10 43C10 36.35 23.325 33 30 33C36.675 33 50 36.35 50 43V50.5H10V43Z" fill="#040F1E"/>
</svg>
