<svg width="128" height="86" viewBox="0 0 128 86" fill="none" xmlns="http://www.w3.org/2000/svg">
<path d="M1.35547 79.1295V58.3271L2.30411 48.9085H9.48669C12.5585 41.884 19.3526 27.1574 21.9546 24.447C22.1532 24.2401 22.3583 24.0257 22.5695 23.805C25.8161 20.4114 30.4737 15.543 34.3547 14.0797C38.488 12.5212 40.3176 12.1824 40.9274 13.1311C41.4153 13.89 41.8535 15.7963 42.0116 16.6546C43.3442 16.4965 46.1585 16.4242 46.7548 17.3999C47.3511 18.3757 47.5905 19.749 47.6357 20.3136L45.9417 23.3628C47.1388 23.0014 50.075 22.4955 52.2434 23.3628C54.9538 24.447 55.8346 25.4634 54.9538 27.0219C54.4224 27.9621 52.4853 29.6667 50.6601 31.273C49.4597 32.3293 48.3077 33.3431 47.6357 34.0689C46.2805 35.5326 42.5988 40.0996 40.9274 42.2002C43.1183 41.1386 48.4488 39.0696 52.2434 39.2865C56.9866 39.5575 60.3746 41.7936 61.2555 43.2166C61.9602 44.3549 63.4915 45.543 64.1691 45.9947C65.3437 44.0523 68.6955 40.1674 72.7069 40.1674C77.7212 40.1674 82.5322 40.4384 85.6491 43.2166C88.1427 45.4391 88.8564 44.1426 88.9016 43.2166C87.4561 41.5 83.806 37.2672 80.7704 34.0689C78.946 32.1468 77.012 30.8199 75.4955 29.7795C73.8577 28.6558 72.7069 27.8663 72.7069 27.0219C72.7069 25.3956 74.3332 22.4142 76.5015 22.2787C78.2362 22.1703 80.8833 23.6791 81.9901 24.447C81.1092 23.0692 79.3881 19.9477 79.5507 18.4841C79.754 16.6546 82.4644 15.5027 84.9038 16.9934C86.8553 18.186 86.7559 15.5479 86.4622 14.0797C86.9592 13.7635 88.3189 13.1311 89.7825 13.1311C91.612 13.1311 96.5585 14.4863 98.388 17.3999C99.2107 18.7102 101.212 20.6096 103.288 22.5807C105.83 24.9928 108.484 27.5122 109.23 29.1902C110.314 31.6296 116.186 43.3521 118.987 48.9085H126.644V78.0453C114.108 77.3225 88.2105 76.0938 84.9038 76.9611C80.7704 78.0453 75.1463 80.8912 72.7069 82.3142C70.2676 83.7372 67.7604 84.9568 67.0151 84.347C66.456 83.8896 65.0592 82.0464 64.3099 81.0176C65.2858 79.2964 68.0782 75.4129 71.4873 73.5731C75.7561 71.2693 81.6513 66.7294 82.6677 61.3763C83.6841 56.0232 83.142 49.0439 77.3146 48.8407C73.4873 48.7072 72.3198 50.3274 71.355 51.6665C70.8508 52.3663 70.4019 52.9893 69.6577 53.2451C67.4894 53.9904 65.3888 53.0418 64.3047 50.9412C63.7959 49.9554 63.7497 50.1039 63.5709 50.6791C63.3686 51.3296 62.9967 52.5259 61.5943 53.2451C59.8394 54.145 58.4133 52.7143 56.8197 51.1158C56.0135 50.307 55.1645 49.4553 54.2084 48.8407C51.3625 47.0111 44.722 50.5347 44.5865 55.5489C44.4509 60.5632 45.9417 67.5425 52.8532 71.6081C59.7365 75.6571 63.3266 78.3619 64.2929 80.9943C64.2493 80.9343 64.2079 80.8772 64.1691 80.8235C63.7174 81.998 62.5022 84.347 61.2555 84.347C60.0087 84.347 53.1017 80.8687 49.804 79.1295L45.9417 76.9611L1.35547 79.1295Z" fill="#F4CCAF"/>
<path d="M78.2627 2.43934C80.3226 4.28242 77.4044 10.7513 75.6878 13.7553C74.9199 13.7553 72.5302 13.1726 69.1151 10.8416C64.8462 7.92791 67.2856 6.30167 69.1151 5.48855C70.5787 4.83805 72.5709 5.75959 73.384 6.30167C73.271 5.82735 73.1129 4.60767 73.384 3.52351C73.7228 2.1683 75.6878 0.135498 78.2627 2.43934Z" fill="#FF6363"/>
<path d="M67.2856 22.9029C67.0688 24.2581 64.53 26.3135 63.2877 27.1718C62.3165 26.2232 60.1979 24.0413 59.4932 22.9029C58.6123 21.4799 57.7992 17.8887 60.3741 17.7531C62.434 17.6447 63.1748 20.2377 63.2877 21.5477C64.1009 20.2829 66.0388 18.0513 67.2856 19.2439C68.8441 20.7346 67.5566 21.2089 67.2856 22.9029Z" fill="#FF6363"/>
<path d="M73.8583 71.9613C70.2264 74.0212 65.7948 78.7373 64.0331 80.8378C63.1296 79.3019 59.5745 75.1325 52.5816 70.7416C43.8406 65.253 44.9925 60.3743 44.3826 56.0377C43.7728 51.701 50.481 46.619 54.4111 48.855C58.3412 51.0911 59.2899 54.2081 61.3227 53.5983C62.9489 53.1104 63.8072 50.9556 64.0331 49.9392L65.5916 52.8529C66.8112 53.1014 69.4674 53.2323 70.3348 51.7687C71.4189 49.9392 75.349 48.1097 78.3982 48.855C81.4474 49.6004 83.1415 54.4114 83.6158 58.9513C84.0901 63.4912 78.3982 69.3864 73.8583 71.9613Z" fill="#FF6363"/>
<path d="M78.2627 2.43934C80.3226 4.28242 77.4044 10.7513 75.6878 13.7553C74.9199 13.7553 72.5302 13.1726 69.1151 10.8416C64.8462 7.92791 67.2856 6.30167 69.1151 5.48855C70.5787 4.83805 72.5709 5.75959 73.384 6.30167C73.271 5.82735 73.1129 4.60767 73.384 3.52351C73.7228 2.1683 75.6878 0.135498 78.2627 2.43934Z" stroke="black" stroke-width="0.13552"/>
<path d="M67.2856 22.9029C67.0688 24.2581 64.53 26.3135 63.2877 27.1718C62.3165 26.2232 60.1979 24.0413 59.4932 22.9029C58.6123 21.4799 57.7992 17.8887 60.3741 17.7531C62.434 17.6447 63.1748 20.2377 63.2877 21.5477C64.1009 20.2829 66.0388 18.0513 67.2856 19.2439C68.8441 20.7346 67.5566 21.2089 67.2856 22.9029Z" stroke="black" stroke-width="0.13552"/>
<path d="M73.8583 71.9613C70.2264 74.0212 65.7948 78.7373 64.0331 80.8378C63.1296 79.3019 59.5745 75.1325 52.5816 70.7416C43.8406 65.253 44.9925 60.3743 44.3826 56.0377C43.7728 51.701 50.481 46.619 54.4111 48.855C58.3412 51.0911 59.2899 54.2081 61.3227 53.5983C62.9489 53.1104 63.8072 50.9556 64.0331 49.9392L65.5916 52.8529C66.8112 53.1014 69.4674 53.2323 70.3348 51.7687C71.4189 49.9392 75.349 48.1097 78.3982 48.855C81.4474 49.6004 83.1415 54.4114 83.6158 58.9513C84.0901 63.4912 78.3982 69.3864 73.8583 71.9613Z" stroke="black" stroke-width="0.13552"/>
<path fill-rule="evenodd" clip-rule="evenodd" d="M75.0085 0.0587489C73.5742 0.594054 72.6365 1.67605 71.906 3.63879C71.7744 3.99195 71.6254 4.30677 71.5745 4.33808C71.5239 4.36952 71.0256 4.33496 70.4672 4.26151C68.9441 4.0608 68.1418 4.02706 67.9041 4.15363C67.7865 4.21624 67.5274 4.30162 67.3282 4.34336C66.7731 4.45978 66.2398 4.98722 65.8052 5.85008C64.8676 7.71118 65.5242 9.33674 68.0292 11.3571C68.8057 11.9833 70.2586 12.7414 71.2158 13.0196C71.6247 13.1385 71.9593 13.295 71.9593 13.3675C71.9593 13.44 72.1081 13.4992 72.2901 13.4992C72.4721 13.4992 72.6533 13.5517 72.693 13.6159C72.7326 13.68 73.1306 13.8351 73.5774 13.9604C74.0242 14.0858 74.4221 14.2407 74.4617 14.3046C74.5438 14.4375 75.3735 14.472 75.918 14.3652C76.1943 14.311 76.3729 14.1193 76.6389 13.5913C77.0423 12.7905 77.4311 12.1005 78.0269 11.1276C78.7544 9.94021 79.4298 8.44827 79.7143 7.40083C80.2085 5.58066 80.0069 2.93584 79.3312 2.37506C79.2271 2.2886 79.1419 2.16433 79.1419 2.09901C79.1419 2.03355 79.0351 1.86388 78.9047 1.72185C78.7743 1.57996 78.5636 1.31285 78.4365 1.12854C78.0344 0.545129 77.0677 0.0789385 76.1278 0.0151084C75.6613 -0.0164678 75.1576 0.00304999 75.0085 0.0587489ZM76.459 2.40027C76.9634 2.64204 77.6492 3.82824 77.7371 4.61047C77.8295 5.43389 77.8292 5.45937 77.7254 5.97787C77.5472 6.86743 77.1797 7.89928 76.8814 8.34704C76.7085 8.60656 76.567 8.88885 76.567 8.97422C76.567 9.0596 76.4755 9.20529 76.3637 9.29812C76.2519 9.39095 76.1604 9.57756 76.1604 9.71294C76.1604 10.2161 75.0208 12.0085 74.701 12.0085C74.5697 12.0085 72.8293 11.2796 72.2932 11C72.0723 10.8848 71.7816 10.7902 71.6472 10.7897C71.5128 10.7892 71.1784 10.6364 70.9043 10.45C70.63 10.2637 70.336 10.1112 70.2509 10.1112C70.1657 10.1112 69.8739 9.91311 69.6023 9.6708C69.3309 9.42849 68.8626 9.02315 68.5621 8.76986C67.8655 8.18306 67.568 7.62269 67.7016 7.14904C67.7572 6.95213 67.7933 6.74709 67.7817 6.69342C67.7254 6.4297 68.3298 6.34445 69.5272 6.44704C70.8197 6.55776 71.5942 6.78408 71.9714 7.1611C72.3385 7.52836 72.9635 7.76132 73.3676 7.6815C73.5983 7.63596 73.9319 7.39108 74.1783 7.08643L74.5971 6.56861L74.2977 6.04848C74.133 5.76239 73.9924 5.35502 73.985 5.14333C73.9514 4.16867 74.5777 3.01065 75.414 2.50069C75.8882 2.21149 76.0356 2.19726 76.459 2.40027ZM88.154 11.8356C88.0049 11.862 87.4597 12.1726 86.9423 12.5257C85.7809 13.3182 85.3665 14.0312 85.3488 15.2667C85.3361 16.1637 85.3697 16.1474 84.3594 15.7436C83.9645 15.5859 83.7238 15.5825 82.3483 15.7151C81.6654 15.781 80.0905 16.4446 80.0905 16.6665C80.0905 16.7366 79.938 16.9938 79.7517 17.2381C79.5654 17.4825 79.4129 17.7809 79.4129 17.9014C79.4129 18.0218 79.3225 18.2952 79.2121 18.5089C78.9187 19.076 79.1649 20.9643 79.623 21.6615C80.0821 22.3602 80.0396 22.4833 79.4456 22.1738C78.0329 21.4373 76.3254 21.3484 75.026 21.9437C74.5884 22.1441 74.1756 22.3081 74.1086 22.3081C74.0417 22.3081 73.6521 22.6255 73.2428 23.0133C71.7429 24.4351 71.5914 25.561 72.6269 27.5909C73.4988 29.3003 73.6788 29.5047 75.0745 30.3715C75.2645 30.4896 75.8936 30.9722 76.7525 31.659C76.8924 31.7708 77.1061 31.9583 77.2274 32.0757C77.3487 32.1932 77.7459 32.4981 78.1102 32.7533C79.4986 33.7263 82.8806 37.414 83.976 39.1493C84.1546 39.4323 84.5478 39.9108 84.8496 40.2126C85.1514 40.5144 85.3655 40.7944 85.3253 40.8347C85.2849 40.8749 84.9901 40.7677 84.6702 40.5965C83.2423 39.8327 82.2725 39.4117 81.5812 39.2557C80.86 39.0928 80.2535 38.9246 79.5484 38.6919C78.7798 38.4382 75.4522 38.4033 73.8566 38.632C69.6769 39.2313 66.5363 40.9283 64.1749 43.8634L63.9118 44.1904L63.5932 43.4883C63.418 43.1022 63.0986 42.6457 62.8835 42.474C62.6683 42.3023 62.2661 41.9788 61.9897 41.7552C61.7133 41.5316 61.3888 41.295 61.2685 41.2296C61.1483 41.164 60.9201 40.981 60.7614 40.823C60.3513 40.4144 59.9095 40.0612 59.8085 40.0612C59.761 40.0612 59.3196 39.8684 58.8275 39.6329C57.4448 38.9707 56.8118 38.7868 55.4258 38.6452C55.0159 38.6032 54.4975 38.5308 54.2739 38.4842C53.5697 38.3376 48.5996 38.3221 48.3262 38.4658C48.1855 38.5396 47.8806 38.6281 47.6486 38.6623C47.4166 38.6965 46.9219 38.8176 46.5492 38.9311C46.1765 39.0447 45.6887 39.1854 45.4651 39.2436C45.2415 39.3019 44.646 39.5074 44.1418 39.7001C43.3621 39.9982 43.2439 40.0157 43.35 39.8172C43.4187 39.6888 43.6025 39.4683 43.7585 39.3273C43.9144 39.186 44.0424 39.0038 44.0428 38.9222C44.043 38.8406 44.2565 38.5416 44.5171 38.258C44.7776 37.9744 44.9907 37.6915 44.9907 37.6295C44.9907 37.5674 45.3262 37.1702 45.7361 36.7469C46.146 36.3237 46.4815 35.9253 46.4815 35.8616C46.4815 35.6784 47.5949 34.7738 47.9211 34.6919C48.0833 34.6511 48.4079 34.379 48.6426 34.0871C48.8772 33.7952 49.1787 33.5563 49.3128 33.5563C49.4468 33.5563 49.6669 33.4343 49.8017 33.2852C49.9366 33.1361 50.0958 33.0142 50.1554 33.0142C50.2149 33.0142 50.4132 32.8769 50.5957 32.7093C51.1058 32.2409 51.3464 32.0569 51.6734 31.8848C51.8386 31.7979 52.1008 31.6048 52.2561 31.4557C52.4114 31.3066 52.7155 31.0649 52.932 30.9185C54.0877 30.1365 55.4758 28.3443 56.0392 26.9067C56.301 26.2386 56.3249 26.0322 56.2126 25.4058C56.1363 24.98 55.9535 24.5395 55.7707 24.3409C55.5993 24.1545 55.3894 23.8668 55.3044 23.7014C55.2193 23.536 54.8612 23.2341 54.5086 23.0303C54.1558 22.8266 53.8368 22.6213 53.7996 22.5741C53.7368 22.4945 53.2179 22.336 52.0382 22.0357C51.4145 21.8768 49.3282 22.001 48.6602 22.2367L48.1328 22.4227L48.5973 21.5184C49.5259 19.7112 49.3075 18.4261 47.8163 16.9211C47.3548 16.4554 46.8808 16.0732 46.7632 16.0721C46.6454 16.071 46.3053 15.9858 46.0071 15.8826C45.2572 15.6231 43.9192 15.5085 43.3949 15.6589L42.9579 15.7841V14.8494V13.9146L42.1768 13.1038C41.5385 12.4412 41.2901 12.2762 40.8186 12.2007C40.5012 12.15 40.2183 12.0707 40.1897 12.0247C40.1612 11.9784 39.3546 11.9463 38.397 11.9531C36.1063 11.9695 34.9835 12.2239 33.2682 13.1156C32.5229 13.503 31.3388 14.1152 30.637 14.4759C29.9351 14.8367 29.2338 15.2509 29.0785 15.3961C28.1931 16.2247 27.8499 16.5075 27.5272 16.6744C27.3297 16.7765 26.7872 17.2473 26.322 17.7207C25.8566 18.1939 25.3692 18.6798 25.2386 18.8003C25.1083 18.9207 24.6989 19.4086 24.329 19.8844C23.9592 20.3602 23.3126 21.146 22.8923 21.6305C22.4717 22.115 21.9656 22.7706 21.7673 23.0873C21.569 23.404 21.3466 23.6633 21.2729 23.6633C21.1993 23.6633 21.1392 23.73 21.1392 23.8114C21.1392 23.9724 19.2485 26.5481 19.0761 26.6221C19.0183 26.647 18.9708 26.7312 18.9708 26.8092C18.9708 26.8873 18.7647 27.2382 18.5126 27.5889C18.2607 27.9396 17.9268 28.4958 17.7705 28.8248C17.6144 29.1538 17.2337 29.8193 16.9246 30.3038C16.6154 30.7883 16.3081 31.3756 16.2417 31.6091C16.1753 31.8425 15.9756 32.2478 15.7978 32.5098C15.62 32.7719 15.4289 33.1298 15.3733 33.3051C15.3176 33.4805 15.0681 34.0509 14.8189 34.5727C14.3986 35.4523 14.2398 35.8631 13.614 37.6896C13.4863 38.0623 13.2672 38.5927 13.1271 38.8684C12.9871 39.144 12.8724 39.45 12.8724 39.5484C12.8724 39.6468 12.7315 39.9397 12.5591 40.1992C12.3868 40.4587 12.1348 40.976 11.999 41.3487C11.8632 41.7214 11.6382 42.1522 11.4991 42.306C11.36 42.4599 11.2462 42.6898 11.2462 42.8169C11.2462 42.944 11.0937 43.2896 10.9074 43.5848C10.721 43.8799 10.5678 44.1684 10.5668 44.2258C10.5642 44.3835 9.84571 45.755 9.4737 46.3122C9.29319 46.5825 9.08462 46.9046 9.01009 47.0279C8.8476 47.2968 7.54403 47.4865 7.28464 47.2792C7.19005 47.2036 6.65542 47.1621 6.0964 47.1869C5.53738 47.2118 4.36228 47.2629 3.48519 47.3006C1.16576 47.4001 0.514861 47.8024 0.829539 48.9422C0.935109 49.3245 0.919253 49.5912 0.762321 50.0712C0.559176 50.6923 0.525567 53.1254 0.715973 53.4334C0.83225 53.6217 0.54847 55.8521 0.346545 56.336C0.29708 56.4546 0.226337 56.8205 0.189475 57.1491C0.118327 57.7824 -0.0189533 64.2284 0.00218789 65.9456C0.0414888 69.1317 0.131068 71.4467 0.261574 72.6489C0.342886 73.3969 0.404682 74.375 0.398991 74.8222C0.393163 75.2694 0.407392 76.5685 0.430431 77.7092C0.470138 79.6744 0.488976 79.8004 0.791457 80.1147C1.16875 80.5067 1.71882 80.5447 2.34249 80.2216C2.88864 79.9386 3.25196 79.897 5.7576 79.8301C6.87564 79.8001 8.06483 79.7627 8.40025 79.7467C8.73566 79.7309 9.7419 79.729 10.6363 79.7428C11.5308 79.7565 12.4455 79.7351 12.6691 79.6953C13.2134 79.5984 15.0599 79.5225 17.6156 79.4922C18.9154 79.4768 20.2328 79.3758 21.0714 79.2274C21.8168 79.0954 22.462 79.0079 22.5051 79.033C22.6761 79.1322 25.0453 79.0958 28.5928 78.9396C30.6425 78.8493 32.5025 78.7795 32.7261 78.7847C37.2603 78.8893 38.9777 78.8751 40.026 78.7247C40.6866 78.6298 41.2726 78.5803 41.328 78.6146C41.3836 78.6489 42.0292 78.5868 42.7629 78.4766C44.5785 78.2041 46.4493 78.3287 47.0355 78.7611C47.2648 78.9302 47.7979 79.2055 48.2205 79.3727C48.6429 79.5398 49.0801 79.752 49.1919 79.8442C49.3037 79.9363 49.883 80.2701 50.4793 80.5859C51.0756 80.9018 51.9444 81.363 52.4099 81.611C52.8754 81.8588 53.6192 82.3081 54.0626 82.6092C54.506 82.9103 54.9554 83.1567 55.0613 83.1567C55.1671 83.1567 55.3991 83.2688 55.5769 83.4058C55.8856 83.6436 56.7692 84.0846 58.1214 84.6752C59.0243 85.0697 60.8503 85.1818 61.592 84.8884C62.1816 84.655 63.0243 84.1032 63.5627 83.5978C63.8205 83.3559 64.0618 83.1615 64.0991 83.1657C64.1364 83.1699 64.3498 83.4252 64.5734 83.7331C65.0099 84.334 65.8107 84.8086 66.8422 85.0776C67.5947 85.2738 69.437 85.0673 69.9564 84.7283C70.1264 84.6176 70.5469 84.4641 70.8911 84.3874C71.2353 84.3105 71.9428 84.0022 72.4632 83.7022C72.9836 83.4021 73.4771 83.1567 73.5599 83.1567C73.6427 83.1567 74.0474 82.8823 74.4592 82.5469C74.8711 82.2115 75.3003 81.937 75.4132 81.937C75.5261 81.937 75.6183 81.8801 75.6183 81.8106C75.6183 81.7411 75.7556 81.6428 75.9233 81.5921C76.0909 81.5414 76.3812 81.3571 76.5681 81.1826C76.9697 80.8073 79.2754 79.7087 79.955 79.5688C80.2159 79.515 80.5513 79.3964 80.7004 79.3051C81.0564 79.0872 82.6578 78.5985 83.6818 78.3953C84.7363 78.1861 87.2253 78.1177 87.7481 78.2835C87.9721 78.3545 89.0088 78.4189 90.0519 78.4267C91.095 78.4344 92.4364 78.5046 93.0327 78.5826C93.629 78.6607 96.8612 78.7444 100.215 78.7688C103.569 78.7931 107.411 78.8539 108.753 78.9039C111.513 79.0069 122.111 79.0163 123.864 78.9174C124.829 78.8629 125.107 78.8965 125.578 79.1247C126.224 79.4374 126.899 79.378 127.411 78.9633L127.726 78.7085L127.76 74.2583C127.838 63.8136 127.945 54.1652 127.99 53.41C128.016 52.9628 127.989 51.8346 127.93 50.9029C127.761 48.2644 127.073 47.0369 126.036 47.5242C125.168 47.932 121.026 47.969 119.798 47.5799C119.598 47.5166 119.12 46.7962 119.12 46.5578C119.12 46.4909 118.915 46.1147 118.665 45.7218C118.414 45.3291 118.164 44.8553 118.108 44.6689C118.053 44.4826 117.809 43.9032 117.568 43.3815C117.326 42.8597 117.016 42.1584 116.879 41.823C116.742 41.4876 116.56 41.1217 116.475 41.0099C116.24 40.702 115.868 39.8439 115.868 39.61C115.868 39.4961 115.784 39.3194 115.682 39.2173C115.424 38.9594 115.178 38.4564 114.505 36.8087C114.185 36.0261 113.823 35.2333 113.7 35.047C113.577 34.8606 113.365 34.4033 113.228 34.0306C113.092 33.6579 112.837 33.1806 112.662 32.9699C112.487 32.7593 112.344 32.5153 112.344 32.4278C112.344 32.3404 112.191 31.9688 112.005 31.6022C111.819 31.2355 111.667 30.8517 111.667 30.7494C111.667 30.647 111.423 30.233 111.125 29.8295C110.827 29.4259 110.582 29.0169 110.581 28.9205C110.581 28.8242 110.367 28.4775 110.107 28.1502C109.847 27.8229 109.634 27.508 109.634 27.4504C109.634 27.3002 108.252 25.4601 107.642 24.7984C107.359 24.491 107.064 24.1556 106.987 24.053C106.112 22.8881 105.793 22.5044 105.565 22.3447C105.417 22.241 105.198 21.9678 105.079 21.7377C104.871 21.3352 102.416 18.7845 102.237 18.7845C102.125 18.7845 100.52 17.4152 100.384 17.2045C100.328 17.1171 99.9624 16.8496 99.5712 16.6098C99.18 16.3702 98.8296 16.1305 98.7923 16.0773C98.6382 15.8568 95.5684 13.5876 95.0994 13.3475C94.8199 13.2042 94.5912 13.0274 94.5912 12.9545C94.5912 12.8814 94.4288 12.8216 94.2304 12.8216C94.032 12.8216 93.5944 12.6604 93.2581 12.4632C92.9216 12.2661 92.4284 12.0524 92.162 11.9883C91.6574 11.867 88.6267 11.7516 88.154 11.8356ZM90.6919 14.1683C91.3424 14.2404 91.9996 14.3664 92.1525 14.4483C92.454 14.6097 92.3994 14.8545 92.0617 14.8545C91.9465 14.8545 91.6821 14.9976 91.4742 15.1724C91.2124 15.3927 90.8506 15.5162 90.2965 15.5741C89.091 15.7001 87.4714 15.2019 87.6418 14.7576C87.7614 14.4461 89.0391 13.8816 89.3737 13.9923C89.4482 14.0169 90.0414 14.0961 90.6919 14.1683ZM39.4344 14.229C40.2779 14.3156 40.6214 14.4384 40.717 14.6872C40.8258 14.971 40.7143 15.045 39.8678 15.2506C39.3942 15.3656 38.9323 15.3877 38.5126 15.3151C38.1624 15.2545 37.7321 15.2209 37.5565 15.2404C37.1615 15.2842 36.0476 14.8405 36.0469 14.6391C36.0461 14.3998 36.5989 14.2246 37.4694 14.1881C37.9166 14.1694 38.3013 14.1354 38.3242 14.1125C38.3471 14.0896 38.4691 14.0923 38.5953 14.1186C38.7214 14.1447 39.099 14.1945 39.4344 14.229ZM34.0586 15.8011C34.5423 16.6199 36.5007 17.5761 37.6318 17.5459C38.755 17.5158 39.2939 17.5898 39.1207 17.7501C38.6637 18.1735 37.6496 19.0469 37.0545 19.5299C36.6871 19.828 36.0152 20.4226 35.5612 20.8512C35.1074 21.2799 34.6915 21.6305 34.6371 21.6305C34.447 21.6305 33.2701 22.7707 31.9808 24.2045C31.5708 24.6604 30.9171 25.365 30.528 25.7702C30.1388 26.1756 29.726 26.6753 29.6105 26.8808C29.4949 27.0864 29.1891 27.529 28.9308 27.8644C28.2183 28.7893 27.4886 29.8957 27.1428 30.5748C26.9721 30.9102 26.7016 31.3981 26.5418 31.659C26.2471 32.1401 25.6535 33.1851 25.4643 33.5563C25.205 34.0649 24.939 34.942 24.8573 35.5575C24.7874 36.0848 24.8208 36.3107 25.0117 36.6021C25.2301 36.9353 25.3163 36.9669 25.8454 36.9073C26.6605 36.8154 26.8233 36.6449 27.4928 35.1825C27.634 34.8741 28.2851 33.7866 28.6872 33.1879C29.3051 32.2679 30.4663 30.5476 30.7942 30.0666C31.0102 29.7498 31.2436 29.4907 31.3128 29.4907C31.3821 29.4907 31.4387 29.3418 31.4387 29.1598C31.4387 28.9778 31.5038 28.7889 31.5832 28.7397C31.6626 28.6907 31.9106 28.398 32.1342 28.0892C32.3578 27.7807 32.9901 27.0396 33.5395 26.4427C34.744 25.1338 35.2326 24.5669 35.2341 24.4764C35.2346 24.4391 35.4482 24.2635 35.7085 24.0862C35.9689 23.909 36.1819 23.6824 36.1819 23.5828C36.1819 23.4833 36.3143 23.3308 36.4761 23.2442C36.6381 23.1577 36.9271 22.9006 37.1186 22.673C37.6138 22.0846 39.8678 20.1397 40.0547 20.1397C40.1406 20.1397 40.3744 20.2682 40.574 20.4253C40.7736 20.5824 41.3012 20.8873 41.7464 21.1029C42.6027 21.5177 43.6145 21.6194 44.3946 21.3688C44.6106 21.2993 45.105 21.2128 45.4931 21.1763L46.1986 21.1102L45.9017 21.5631C45.7384 21.8123 45.4427 22.1118 45.2446 22.2289C45.0466 22.3459 44.4968 22.8472 44.0229 23.3429C43.0078 24.4047 41.8914 25.5135 40.4274 26.9141C39.3904 27.9062 38.9048 28.4353 37.9437 29.6207C37.6828 29.9425 37.1644 30.556 36.7918 30.9841C35.7393 32.1931 35.2753 32.7953 34.9556 33.3676C34.7935 33.6578 34.4543 34.1776 34.2017 34.5231C33.9492 34.8685 33.7424 35.2039 33.7421 35.2684C33.742 35.3329 33.5321 35.7337 33.2755 36.1589C33.0191 36.5842 32.662 37.194 32.4819 37.5141C32.302 37.8342 32.0176 38.3381 31.8503 38.6337C31.6829 38.9292 31.4525 39.2394 31.3383 39.3229C31.2082 39.4182 31.1307 39.6899 31.1307 40.0513C31.1307 41.0911 32.1332 41.6562 32.9862 41.0973C33.1746 40.9738 33.4842 40.5444 33.6741 40.1428C33.8641 39.7413 34.1646 39.1991 34.3418 38.9379C34.5191 38.6766 34.7014 38.3454 34.7469 38.2018C34.7926 38.0583 34.946 37.8159 35.088 37.6636C35.23 37.5111 35.4977 37.0887 35.6829 36.7249C35.8682 36.3611 36.3359 35.7032 36.7224 35.2629C37.1089 34.8226 37.565 34.2432 37.7359 33.9754C37.9068 33.7076 38.3132 33.2114 38.6389 32.8726C38.9647 32.5338 39.6169 31.8324 40.0884 31.3141C41.2727 30.012 41.6552 29.6264 41.7631 29.6263C41.8139 29.6263 41.8942 29.5042 41.9415 29.3551C41.9888 29.2061 42.0814 29.0841 42.1471 29.0841C42.2128 29.0841 42.6626 28.703 43.1467 28.2371C44.1383 27.2828 44.311 27.1453 45.4989 26.3653C45.9649 26.0594 46.3459 25.7603 46.3459 25.7007C46.3459 25.6411 46.4643 25.5612 46.6087 25.5234C46.7888 25.4764 47.0029 25.5992 47.2896 25.9143C47.5196 26.1669 47.7578 26.3737 47.8189 26.3737C47.88 26.3737 48.103 26.5222 48.3142 26.7038C48.8701 27.1815 51.1241 27.6546 52.6363 27.6111L53.1669 27.5958L52.8436 27.9673C52.4377 28.4336 51.7272 29.0757 51.6117 29.0804C51.5636 29.0825 51.3247 29.2706 51.0807 29.4985C50.6409 29.9095 49.5914 30.6634 48.7339 31.1847C48.4888 31.3337 47.9619 31.7301 47.5632 32.0655C47.1645 32.4009 46.4378 32.9498 45.9483 33.2852C45.3903 33.6677 44.9864 34.0586 44.8654 34.3339C44.7591 34.5752 44.5701 34.8051 44.4455 34.8446C44.2218 34.9157 43.3645 35.8909 43.3645 36.0742C43.3645 36.1261 43.1206 36.4332 42.8224 36.7567C42.5243 37.0802 42.2803 37.4096 42.2803 37.4889C42.2803 37.5683 42.1538 37.7678 41.999 37.9325C41.6372 38.3175 40.5186 39.8782 40.5186 39.9982C40.5186 40.0486 40.3706 40.2657 40.1897 40.4807C40.0089 40.6956 39.6489 41.2838 39.3901 41.7878C38.6567 43.2148 38.1704 44.0486 37.9468 44.2624C37.9078 44.2996 37.6398 44.6809 37.3512 45.1094C37.0627 45.5379 36.7805 45.8886 36.7241 45.8886C36.6679 45.8886 36.491 46.1927 36.3311 46.5645C36.0282 47.2686 36.0441 47.6399 36.4077 48.3619C36.5733 48.6906 36.6722 48.7345 37.2459 48.7345C37.7545 48.7345 37.9621 48.6646 38.1972 48.4143C38.3627 48.2381 38.4881 48.04 38.4759 47.9739C38.4002 47.5651 38.5652 47.2121 39.1972 46.4301C39.5885 45.9459 39.9522 45.5302 40.0055 45.5063C40.2146 45.4121 42.4897 43.5273 42.5861 43.3683C42.6424 43.2754 42.9169 43.0614 43.1959 42.8928C43.4749 42.7243 43.9036 42.4147 44.1485 42.2048C44.3932 41.9947 44.6934 41.823 44.8154 41.823C44.9375 41.823 45.4384 41.6617 45.9288 41.4647C46.4191 41.2675 47.0947 41.0839 47.4301 41.0564C47.7655 41.029 48.2606 40.9195 48.5303 40.8132C48.7999 40.7068 49.2669 40.6232 49.5679 40.6273C49.8689 40.6315 50.1667 40.6059 50.2295 40.5705C50.4358 40.4541 54.8084 40.7059 55.4291 40.8699C55.7627 40.9581 56.2796 41.0916 56.5777 41.1667C57.2631 41.3393 58.5677 41.9322 58.7461 42.1522C58.8206 42.2441 59.2475 42.5707 59.6947 42.8779C60.1419 43.1851 60.7408 43.6871 61.0256 43.9934C61.5863 44.5964 61.5889 44.5689 60.898 45.3465C60.5673 45.7187 60.1349 46.9789 59.8874 48.2917C59.7538 49 59.7604 49.1858 59.9282 49.4436C60.0381 49.6127 60.1705 49.9791 60.2223 50.258C60.274 50.5369 60.4754 51.0716 60.6696 51.4462C60.864 51.8206 60.9985 52.1507 60.9686 52.1799C60.9388 52.2089 60.6307 52.2749 60.2842 52.3265L59.654 52.4203L59.2826 51.7633C59.0783 51.4018 58.7535 50.8622 58.5608 50.5641C58.3681 50.2659 58.0754 49.7476 57.9102 49.4121C57.4727 48.5235 56.9755 48.0477 55.815 47.4071C54.3126 46.5779 53.7528 46.4106 52.5121 46.4208C51.1325 46.432 49.4153 46.9706 48.4465 47.6959C48.0738 47.9748 47.6239 48.3074 47.4468 48.4349C46.6425 49.0138 44.7322 51.1106 44.5422 51.623C44.4817 51.7859 44.3242 52.0411 44.1921 52.1902C43.6598 52.7908 43.2177 54.816 43.3047 56.2559C43.3228 56.5541 43.3741 57.328 43.419 57.9757C43.4637 58.6234 43.4493 59.1849 43.3869 59.2235C43.3244 59.2622 43.2627 59.5755 43.2497 59.9198C43.2328 60.3684 43.3032 60.6443 43.4985 60.8925C43.6484 61.083 43.7711 61.4116 43.7711 61.6227C43.7711 61.8337 43.8604 62.2066 43.9695 62.4514C44.0785 62.6961 44.2352 63.2466 44.3176 63.6746C44.4073 64.1402 44.5662 64.5219 44.7132 64.6248C44.9602 64.7979 46.0749 66.1499 46.0749 66.2764C46.0749 66.4105 47.4618 68.385 47.556 68.385C47.6503 68.385 47.9996 68.6799 49.0218 69.6226C49.651 70.203 51.6421 71.5968 52.0794 71.7631C52.2569 71.8306 52.488 71.9694 52.5927 72.0714C52.6975 72.1736 53.1491 72.4282 53.5963 72.6374C54.0435 72.8465 54.5009 73.0924 54.6127 73.1839C54.7245 73.2754 55.0722 73.4468 55.3856 73.5647C55.6989 73.6825 56.4533 74.1027 57.0623 74.4984C57.6714 74.894 58.2472 75.2292 58.3421 75.2431C58.6315 75.2855 61.6207 78.4788 61.7406 78.8739C61.7883 79.0307 61.9056 79.2503 62.0011 79.3621C62.3951 79.8229 62.5475 81.2594 62.2026 81.2594C62.1446 81.2594 62.0014 81.0575 61.8843 80.8108C61.6248 80.2639 60.6554 79.1435 60.2568 78.9297C59.7371 78.6509 57.6265 78.2957 56.8944 78.3638C55.9747 78.4491 55.0633 78.8734 54.5159 79.4711C54.0262 80.0056 54.1648 80.0256 52.7154 79.2105C52.3055 78.9798 51.8082 78.7047 51.6106 78.599C51.4129 78.4933 51.2165 78.3169 51.1744 78.2068C51.1323 78.0969 51.0172 78.0069 50.9188 78.0069C50.8204 78.0069 50.5288 77.8946 50.2707 77.7574C47.6014 76.3376 46.7478 76.0731 44.9257 76.1014C42.5754 76.138 41.2096 76.2361 40.3592 76.4295C39.5734 76.6081 37.1307 76.6318 34.2169 76.4891C33.8442 76.4708 32.533 76.5032 31.3032 76.5609C27.8482 76.7233 24.7668 76.8251 22.8332 76.8407C21.8642 76.8485 20.7055 76.9388 20.2583 77.0412C19.7483 77.1579 18.3336 77.2454 16.4637 77.2759C14.8239 77.3026 12.8114 77.3568 11.9915 77.3963C10.1848 77.4834 8.81941 77.479 8.50826 77.3849C8.38127 77.3465 7.98488 77.3983 7.62737 77.5C7.16877 77.6303 6.3585 77.6721 4.87672 77.6418L2.77615 77.599L2.75406 76.956C2.74187 76.6023 2.69552 75.886 2.65107 75.3643C2.5707 74.4209 2.48682 72.5339 2.3471 68.5205C2.2609 66.0444 2.26199 66.1527 2.29722 63.6418C2.3124 62.561 2.32338 61.0974 2.32175 60.3893C2.31579 57.8903 2.4837 56.305 2.79838 55.8887C2.87332 55.7896 2.91411 54.9507 2.89283 53.9521C2.8309 51.056 2.84635 50.7248 3.07186 50.1229L3.28788 49.5463L4.18394 49.5548C4.67683 49.5596 5.50689 49.5559 6.02864 49.5468C6.55039 49.5378 7.19073 49.5361 7.4516 49.543C9.36136 49.5941 10.5716 49.2346 10.8574 48.5313C10.9482 48.3076 11.1477 47.9432 11.3008 47.7215C11.4539 47.4998 11.8093 46.8595 12.0905 46.2986C12.3717 45.7376 12.6626 45.1721 12.7372 45.0416C12.8116 44.9111 12.9335 44.6978 13.0082 44.5673C13.083 44.4368 13.2038 44.1777 13.2765 43.9913C13.3494 43.805 13.5018 43.4799 13.6151 43.2689C13.7284 43.0579 13.8211 42.8231 13.8211 42.7474C13.8211 42.5999 14.6662 40.8803 15.3411 39.6547C15.748 38.9157 16.0437 38.1291 16.2584 37.2153C16.4225 36.5164 16.8728 35.3878 17.1965 34.864C17.3525 34.6117 17.4801 34.2845 17.4801 34.1372C17.4801 33.9899 17.6021 33.7589 17.7512 33.624C17.9002 33.4892 18.0235 33.2814 18.0252 33.1626C18.0268 33.0437 18.1474 32.794 18.2932 32.6076C18.4391 32.4213 18.5597 32.203 18.5613 32.1226C18.5648 31.9508 19.5803 30.1513 20.0211 29.5358C20.1889 29.3016 20.326 29.0705 20.326 29.0222C20.326 28.8267 21.8784 26.6476 22.6955 25.6961C23.1755 25.1371 23.5705 24.6298 23.5734 24.569C23.5762 24.5081 23.731 24.2585 23.9173 24.0141C24.1037 23.7698 24.2561 23.5351 24.2561 23.4924C24.2561 23.4498 24.7726 22.8762 25.4037 22.2178C26.035 21.5593 26.5533 20.9588 26.5556 20.8832C26.5581 20.8077 26.8496 20.4612 27.2037 20.1133C27.5578 19.7654 27.9527 19.3297 28.0815 19.145C28.2103 18.9604 28.7424 18.5257 29.2639 18.179C29.7854 17.8324 30.3204 17.4143 30.4527 17.2502C30.5851 17.0859 30.9983 16.7849 31.3709 16.5811C32.1849 16.1359 33.6461 15.4114 33.7472 15.4028C33.787 15.3994 33.9271 15.5785 34.0586 15.8011ZM95.8899 16.7073C96.0652 16.8692 96.3227 17.038 96.4622 17.0821C96.6015 17.1264 96.9236 17.3499 97.178 17.5787C97.4322 17.8076 97.7929 18.0752 97.9792 18.1735C98.1655 18.2717 98.4492 18.4952 98.6095 18.67C98.77 18.8449 99.092 19.1403 99.3252 19.3266C100.66 20.393 103.399 22.9876 103.402 23.1876C103.403 23.2629 103.631 23.5753 103.91 23.882C104.605 24.6467 105.598 25.8167 105.817 26.1274C105.916 26.2688 106.145 26.5434 106.325 26.7377C106.505 26.9319 106.652 27.1336 106.652 27.1859C106.652 27.2382 106.774 27.4215 106.924 27.5934C107.073 27.7652 107.195 27.9814 107.195 28.0738C107.195 28.1661 107.469 28.5469 107.804 28.92C108.14 29.2931 108.414 29.6359 108.414 29.682C108.414 29.7281 108.615 30.085 108.859 30.4752C109.698 31.8127 109.586 31.5987 110.216 33.0524C110.371 33.4088 110.574 33.7639 110.667 33.8415C110.761 33.919 111.006 34.4202 111.212 34.9552C111.417 35.4901 111.695 36.0733 111.83 36.2511C111.964 36.4289 112.073 36.6557 112.073 36.7552C112.073 36.8548 112.226 37.2695 112.412 37.6769C112.598 38.0843 112.751 38.5079 112.751 38.6184C112.751 38.7287 112.797 38.8392 112.853 38.8642C113.006 38.9325 113.7 40.2758 113.7 40.5051C113.7 40.6154 113.791 40.7815 113.903 40.8744C114.015 40.9672 114.106 41.1228 114.106 41.2203C114.106 41.3178 114.293 41.8134 114.521 42.3217C115.137 43.6916 115.225 43.8558 115.349 43.8558C115.411 43.8558 115.461 43.9219 115.461 44.0028C115.461 44.0837 115.675 44.5833 115.936 45.1128C116.197 45.6424 116.41 46.166 116.41 46.2763C116.41 46.3868 116.489 46.5734 116.586 46.691C116.755 46.8961 117.158 47.7841 117.492 48.6848C117.775 49.4486 118.271 49.7816 119.256 49.8683C119.74 49.9109 120.35 49.9824 120.611 50.0271C120.872 50.0718 122.1 50.1089 123.34 50.1094L125.596 50.1102L125.666 50.4727C125.705 50.6721 125.704 52.4817 125.662 54.4942C125.621 56.5066 125.591 58.3362 125.596 58.5598C125.6 58.7834 125.607 59.2408 125.611 59.5762C125.617 60.1558 125.532 72.709 125.504 75.432L125.49 76.7195L123.965 76.72C123.127 76.7203 121.831 76.7467 121.085 76.7787C120.34 76.8108 118.754 76.8295 117.562 76.8203C116.369 76.8111 114.967 76.8053 114.445 76.8073C112.865 76.8134 108.564 76.6856 107.195 76.5918C106.486 76.5433 103.224 76.4829 99.9442 76.4575C96.6646 76.4322 93.6459 76.3803 93.236 76.3425C92.826 76.3045 91.6978 76.2604 90.7289 76.2444C89.7599 76.2282 88.3877 76.1415 87.6796 76.0515C86.2168 75.8657 84.1778 75.9127 83.8088 76.1408C83.7322 76.1881 83.341 76.2644 82.9396 76.3103C82.5381 76.3563 81.7176 76.549 81.1163 76.7386C79.6301 77.2071 76.3518 78.6237 75.6861 79.0847C75.388 79.2913 74.9421 79.5637 74.6953 79.69C74.2542 79.9159 74.2421 79.914 73.9833 79.5851C73.6125 79.1136 72.5687 78.6428 71.7624 78.5832C70.6599 78.5017 69.989 78.5319 69.5976 78.6807C69.0509 78.8886 67.4344 80.1904 67.2093 80.6043C67.1013 80.803 66.8689 81.2451 66.693 81.5868C66.5171 81.9285 66.3314 82.2081 66.2806 82.2081C66.2296 82.2081 66.0755 81.877 65.938 81.4725C65.5969 80.4687 65.6973 79.6721 66.2497 79.0019C66.483 78.7188 66.674 78.4216 66.674 78.3414C66.674 78.261 66.8943 77.9548 67.1638 77.6607C67.4332 77.3666 67.8346 76.8974 68.056 76.6179C68.2775 76.3384 68.5149 76.1096 68.5839 76.1096C68.6527 76.1096 68.8763 75.9632 69.0807 75.784C69.856 75.1042 70.6977 74.4825 71.4172 74.0582C71.8272 73.8164 72.1829 73.5692 72.2077 73.5089C72.2326 73.4486 72.3928 73.3992 72.5638 73.3992C72.7349 73.3992 72.9474 73.3117 73.0363 73.2046C73.125 73.0977 73.3865 72.9687 73.6172 72.918C74.1188 72.8078 75.0891 72.3053 75.7002 71.8391C75.9435 71.6537 76.2171 71.502 76.3083 71.502C76.3995 71.502 76.7848 71.2656 77.1644 70.9768C77.5438 70.688 78.0069 70.3743 78.1932 70.2794C78.3796 70.1847 78.5808 70.0247 78.6404 69.9237C78.7001 69.8227 78.9417 69.6404 79.1774 69.5185C79.6647 69.2666 80.3615 68.6101 80.3615 68.403C80.3615 68.327 80.5375 68.1608 80.7525 68.0339C80.9676 67.9067 81.2439 67.6136 81.3666 67.3824C81.971 66.2428 82.6292 65.1145 82.7744 64.9693C82.8635 64.8802 82.9364 64.7296 82.9364 64.6347C82.9364 64.4718 83.1861 63.8617 83.7584 62.6254C83.8963 62.3272 84.047 61.9003 84.0932 61.6767C84.1758 61.2771 84.2252 61.134 84.5619 60.3215C84.9055 59.4917 84.9842 59.0677 85.0575 57.6466C85.1582 55.6961 84.9393 54.7103 83.8612 52.2581C83.3815 51.167 83.1774 50.8438 82.6121 50.2802C82.306 49.975 81.8451 49.5024 81.5877 49.2299C81.3305 48.9575 81.0718 48.7345 81.0129 48.7345C80.9539 48.7345 80.7428 48.5516 80.5434 48.328C80.3442 48.1044 80.1053 47.9214 80.0125 47.9214C79.9196 47.9214 79.3656 47.6958 78.7812 47.4198C77.833 46.9722 77.5769 46.9123 76.3966 46.862C75.6461 46.8301 75.0014 46.863 74.9059 46.9383C74.8132 47.0113 74.5557 47.1145 74.3335 47.1678C73.9005 47.2716 72.3099 48.348 72.1336 48.6565C72.075 48.7589 71.6916 49.2117 71.2817 49.6627C70.8717 50.1137 70.3683 50.692 70.163 50.9477C69.9577 51.2033 69.5917 51.4863 69.3498 51.5763C69.1079 51.6664 68.7483 51.8262 68.5504 51.9313C68.207 52.1139 67.3516 52.2001 67.3516 52.0521C67.3516 52.0133 67.5009 51.745 67.6835 51.4558C68.7582 49.7534 68.9247 48.866 68.5118 47.0408C68.3063 46.1329 68.1498 45.8027 67.548 45.008C67.1245 44.4486 66.895 44.0371 66.9889 44.0056C67.0766 43.9761 67.3355 43.7627 67.5641 43.5312C67.7928 43.2998 68.1588 43.0215 68.3772 42.913C68.5958 42.8044 68.866 42.6475 68.9778 42.5644C69.0896 42.4812 69.7605 42.1828 70.4686 41.9012C71.1767 41.6197 71.939 41.3094 72.1626 41.2117C72.3862 41.1141 73.1431 40.9653 73.8444 40.8811C74.5458 40.7968 75.1618 40.702 75.2133 40.6701C75.3145 40.6075 78.2724 40.8239 78.9386 40.9427C79.1622 40.9825 79.5327 41.0372 79.762 41.0645C79.9913 41.0917 80.3572 41.2042 80.5751 41.3145C80.793 41.4248 81.3738 41.6472 81.8656 41.8088C82.9404 42.1618 85.5823 43.4673 85.9756 43.8397C87.7541 45.5239 89.6592 47.5445 89.8356 47.9335C90.2461 48.8392 90.6633 49.0485 91.3937 48.7157C91.7355 48.56 92.1518 47.6441 92.1518 47.0483C92.1518 46.6646 91.4212 45.1923 91.0758 44.8797C90.9222 44.7406 90.7966 44.5803 90.7966 44.5233C90.7966 44.3731 89.3562 42.3045 89.1086 42.0989C88.9935 42.0035 88.8993 41.8428 88.8993 41.7418C88.8993 41.6409 88.7469 41.4583 88.5605 41.3362C88.3742 41.2141 88.2217 41.0392 88.2217 40.9475C88.2217 40.8558 88.0935 40.6648 87.9369 40.523C87.7801 40.3812 87.5588 40.0821 87.4449 39.8582C87.331 39.6345 87.1559 39.3599 87.0556 39.2481C85.7822 37.8287 84.9748 36.8457 84.9724 36.7119C84.9706 36.6213 84.8421 36.4792 84.6867 36.3961C84.5314 36.3129 84.3234 36.0512 84.2244 35.8146C84.1255 35.5778 83.8715 35.2248 83.66 35.0299C83.4483 34.835 83.0313 34.3833 82.7332 34.0262C81.9923 33.1387 81.2346 32.4062 80.1446 31.5235C79.6383 31.1135 79.0824 30.6423 78.909 30.4763C78.7356 30.3104 78.4579 30.1027 78.2919 30.0148C78.1259 29.9269 77.868 29.7468 77.7189 29.6145C76.9531 28.9349 76.4514 28.5416 76.3458 28.5384C76.1371 28.5318 75.2782 27.7529 75.374 27.6569C75.4251 27.606 75.7723 27.6426 76.1456 27.7382C76.6576 27.8694 76.9513 27.8758 77.3396 27.764C77.6227 27.6825 78.2648 27.5434 78.7663 27.4549C79.6982 27.2905 81.4078 26.4948 81.5335 26.167C81.588 26.0251 81.6757 26.0215 81.9642 26.149C82.4724 26.3736 83.3818 26.9747 83.5867 27.2215C83.6811 27.3355 83.9547 27.5075 84.1945 27.6037C84.4342 27.7 84.8744 28.0087 85.1725 28.2897C85.4707 28.5707 85.9481 28.9574 86.2335 29.1489C86.5189 29.3404 87.4285 30.1817 88.2548 31.0185C90.2353 33.0242 90.5258 33.3351 90.5257 33.4478C90.5254 33.6153 91.3482 34.7678 91.5478 34.8795C91.7405 34.9874 92.6939 36.4793 92.6939 36.6731C92.6939 36.7295 92.7885 36.8541 92.9042 36.9501C93.2285 37.2192 95.081 40.086 95.1772 40.4678C95.2242 40.6541 95.4744 41.0354 95.7331 41.3148C96.1204 41.7332 96.2947 41.8222 96.7187 41.8188C97.8216 41.8096 97.9716 40.7321 97.0826 39.2069C96.8304 38.7743 96.624 38.3828 96.624 38.3367C96.624 38.2907 96.5279 38.1469 96.4104 38.017C96.2931 37.8874 96.1833 37.6883 96.1666 37.5747C96.1499 37.4611 95.9659 37.198 95.7577 36.9897C95.5494 36.7815 95.284 36.4268 95.1676 36.2018C95.0511 35.9765 94.7325 35.4874 94.4595 35.1147C94.1863 34.7421 93.9189 34.3457 93.8651 34.2339C93.6247 33.7334 92.9106 32.7225 92.4229 32.1923C92.3111 32.0706 91.9147 31.6208 91.542 31.1926C90.8149 30.3573 89.6795 29.1991 88.412 27.9999C87.9786 27.59 87.6188 27.1936 87.6124 27.119C87.586 26.8136 87.2173 26.2382 87.048 26.2382C86.9482 26.2382 86.8634 26.162 86.8595 26.0688C86.8557 25.9757 86.5964 25.6959 86.2835 25.4474C85.1453 24.5431 82.2628 21.734 82.0637 21.3352C81.9322 21.0716 81.9185 20.9705 82.0253 21.0514C82.2924 21.2541 83.3567 21.6164 84.0829 21.7518C85.0049 21.9237 86.3369 21.6526 87.5187 21.0522L88.4585 20.5748L89.5107 21.5769C90.0893 22.1281 90.6175 22.5791 90.6843 22.5791C90.7997 22.5791 92.5745 24.217 93.4009 25.0862C93.6135 25.3098 93.9999 25.7062 94.2593 25.9671C94.5188 26.228 94.8369 26.6027 94.966 26.7996C95.0953 26.9967 95.506 27.5175 95.8786 27.9568C96.2513 28.3962 96.7087 28.9589 96.895 29.2073C97.0814 29.4556 97.3775 29.7887 97.5531 29.9474C97.7288 30.1062 98.3322 30.8459 98.8944 31.5912C99.4565 32.3366 100.121 33.1966 100.371 33.5025C100.621 33.8083 100.825 34.1093 100.825 34.1714C100.825 34.2333 100.96 34.4275 101.124 34.6026C101.289 34.7778 101.579 35.205 101.768 35.5519C102.176 36.2995 102.648 36.4935 103.347 36.2013C104.349 35.7829 104.094 34.6662 102.496 32.4721C101.684 31.3564 99.817 29.0628 99.1914 28.4115C98.8519 28.0581 98.3362 27.4092 98.0453 26.9697C97.5553 26.2289 96.7985 25.3181 96.3794 24.9644C96.2822 24.8823 96.0082 24.6018 95.7706 24.3409C94.8064 23.2821 92.7724 21.3406 92.1438 20.8793C91.7756 20.6089 91.4742 20.3422 91.4742 20.2866C91.4742 20.2311 91.3227 20.1045 91.1377 20.0054C90.9526 19.9064 90.7696 19.7263 90.7313 19.6053C90.6928 19.4842 90.4773 19.2765 90.2524 19.1435C90.0273 19.0107 89.8773 18.8467 89.9189 18.7794C89.9605 18.712 89.8974 18.4693 89.7789 18.2399L89.5631 17.8228L90.1473 17.853C90.6975 17.8814 91.7504 17.5773 92.3551 17.2152C92.5042 17.126 92.8396 16.9844 93.1005 16.9007C93.3613 16.8168 93.8142 16.5456 94.107 16.2977L94.639 15.8473L95.1049 16.1301C95.3612 16.2857 95.7144 16.5455 95.8899 16.7073ZM59.5702 16.449C59.3526 16.4788 58.8821 16.7498 58.5245 17.0514C58.0126 17.4829 57.8301 17.7517 57.6665 18.3146C57.4399 19.0939 57.3867 20.4859 57.5788 20.6046C57.6448 20.6454 57.7378 20.8858 57.7852 21.1387C57.8326 21.3915 58.053 21.8491 58.2748 22.1553C58.4967 22.4616 58.6783 22.7901 58.6783 22.8854C58.6783 22.9805 58.9222 23.3536 59.2204 23.7144C59.5185 24.0753 59.7625 24.4267 59.7625 24.4954C59.7625 24.5641 60.3418 25.2101 61.0499 25.9309C61.758 26.6518 62.3373 27.2852 62.3373 27.3385C62.3373 27.3918 62.6024 27.5367 62.9264 27.6604C63.4473 27.8593 63.5691 27.8629 63.9767 27.6922C64.2304 27.5859 64.771 27.1696 65.1781 26.767C65.5852 26.3643 66.0812 25.9117 66.2803 25.761C66.7428 25.4112 67.6226 24.2628 67.6226 24.0089C67.6226 23.9022 67.6717 23.7844 67.7319 23.7473C67.8444 23.6778 68.4688 22.4494 68.6358 21.9693C68.9976 20.9285 68.9952 19.5958 68.6306 19.1076C67.7716 17.9573 66.7709 17.8577 65.0617 18.7524L63.9582 19.3301L63.8254 18.9808C63.7523 18.7886 63.6925 18.5523 63.6925 18.4555C63.6925 18.0881 62.8426 17.2331 62.0971 16.8505C61.3339 16.4589 60.4844 16.3239 59.5702 16.449ZM45.9429 18.2666L46.3533 18.5699L46.0416 18.7332C45.6979 18.9133 43.8213 19.1645 43.1272 19.1233C42.5628 19.09 42.0583 18.6698 42.31 18.4426C42.5172 18.2555 43.5659 17.8706 44.0421 17.8069C44.6137 17.7303 45.5114 17.9474 45.9429 18.2666ZM84.4949 18.1187C86.5131 18.9827 86.6783 19.1313 85.7794 19.2751C85.4796 19.323 85.2015 19.4153 85.1615 19.4799C85.047 19.6652 84.3862 19.6093 84.0964 19.39C83.9516 19.2807 83.7047 19.1911 83.5475 19.1911C83.3903 19.1911 83.2037 19.1401 83.1329 19.0779C83.0622 19.0157 82.7109 18.8569 82.3523 18.7249C81.7323 18.4966 81.7116 18.4727 81.926 18.2358C82.3198 17.8007 83.614 17.7417 84.4949 18.1187ZM61.1988 18.8678C61.4523 18.9881 61.6644 19.1557 61.6702 19.2404C61.6966 19.6341 61.8012 19.946 62.1376 20.6333C62.3386 21.0442 62.4687 21.4962 62.4294 21.6467C62.3902 21.7962 62.4459 22.1281 62.553 22.3844C62.7275 22.8023 62.8019 22.8502 63.2768 22.8502C64.0289 22.8502 64.2119 22.7484 64.5096 22.1647C64.9002 21.3991 65.331 20.9943 66.0042 20.7599C66.7317 20.5066 66.917 20.493 66.7011 20.7089C66.6117 20.7984 66.5385 20.9878 66.5385 21.13C66.5385 21.4021 65.595 23.2921 65.4204 23.3696C65.3645 23.3945 65.3188 23.5012 65.3188 23.6068C65.3188 23.7123 65.2551 23.7988 65.1773 23.7988C65.0995 23.7988 64.796 24.0208 64.5027 24.2922C63.4931 25.2264 63.5656 25.2235 62.7051 24.3639C60.7039 22.3651 59.3083 19.7064 59.8523 18.9296C60.0891 18.5917 60.5704 18.5696 61.1988 18.8678ZM78.0916 24.0799C78.4456 24.174 78.7353 24.3032 78.7353 24.367C78.7353 24.4309 78.8878 24.541 79.0741 24.6119C79.4759 24.7646 79.5232 25.0185 79.1499 25.0185C79.0051 25.0185 78.8536 25.0723 78.813 25.138C78.7723 25.2037 78.3424 25.3 77.8577 25.3519C77.3731 25.4039 76.9416 25.5027 76.8989 25.5717C76.7845 25.7567 76.179 25.5681 75.451 25.1209L74.8091 24.7266L75.2131 24.3867C75.9342 23.78 76.6689 23.7016 78.0916 24.0799ZM52.7887 24.6148C53.1211 24.7858 53.393 24.9647 53.393 25.0125C53.393 25.0604 53.1751 25.1784 52.9088 25.2746C52.4996 25.4226 52.2164 25.4131 51.0793 25.2134C50.3393 25.0834 49.734 24.9254 49.734 24.8622C49.734 24.7991 49.6425 24.7474 49.5307 24.7474C49.4189 24.7474 49.3274 24.6911 49.3274 24.6222C49.3274 24.4519 50.5894 24.2498 51.4674 24.2796C51.9078 24.2947 52.4177 24.424 52.7887 24.6148ZM66.273 47.3793C66.2813 47.5657 66.3109 47.8401 66.3387 47.9892C66.4622 48.6513 66.4412 48.9689 66.2441 49.4121C66.1281 49.673 65.9735 50.038 65.9003 50.2234C65.7675 50.5601 65.7674 50.56 65.6167 50.0878C65.3929 49.3864 65.2884 46.8761 65.4689 46.5388C65.6154 46.2651 65.6255 46.2674 65.9381 46.6498C66.1139 46.8648 66.2646 47.193 66.273 47.3793ZM62.8709 48.5439C62.8596 49.4697 62.8062 50.2545 62.7522 50.2879C62.5958 50.3845 62.0663 49.0483 62.0663 48.557C62.0663 48.3118 62.1288 48.0487 62.2049 47.9725C62.2812 47.8962 62.3701 47.6962 62.4025 47.528C62.6728 46.1247 62.8943 46.6054 62.8709 48.5439ZM54.3309 49.1529C54.6605 49.37 54.9816 49.5477 55.0444 49.5477C55.2606 49.5477 55.9646 50.4298 56.2612 51.0723C56.4246 51.4262 56.6084 51.716 56.6696 51.716C56.7309 51.716 56.781 51.822 56.781 51.9514C56.781 52.3429 58.011 53.9991 58.5284 54.3044C59.1263 54.6572 61.0059 54.7316 61.4565 54.4203C61.531 54.3688 61.8969 54.2254 62.2696 54.1016C63.1762 53.8002 63.8281 53.1999 63.8281 52.6665C63.8281 52.1086 63.9659 52.1589 64.4006 52.8751C64.6038 53.2098 64.8782 53.5204 65.0105 53.5653C65.1427 53.6102 65.5864 53.7984 65.9964 53.9835C67.0349 54.4524 68.4314 54.5356 69.0579 54.1661C69.3099 54.0174 69.7759 53.8268 70.0938 53.7426C70.5552 53.6203 70.9044 53.3453 71.8238 52.3811C72.4573 51.7165 73.2196 50.8901 73.5178 50.5447C74.0787 49.8947 74.8884 49.3081 75.395 49.1849C76.7131 48.8644 78.2629 49.2633 79.2362 50.1735C79.4452 50.3689 79.8157 50.6821 80.0595 50.8697C80.8657 51.4894 81.8313 52.8419 82.0401 53.6438C82.1469 54.0537 82.3649 54.6453 82.5247 54.9583C82.7741 55.4473 82.811 55.7268 82.7856 56.9421C82.7693 57.7199 82.7153 58.3565 82.6655 58.3565C82.6158 58.3565 82.5719 58.4328 82.5681 58.5259C82.5643 58.6191 82.4885 58.9697 82.3998 59.3051C82.3111 59.6405 82.1932 60.1589 82.1379 60.457C82.0827 60.7552 81.9696 61.1211 81.887 61.2702C81.8042 61.4192 81.702 61.6327 81.6597 61.7445C81.6176 61.8563 81.5305 62.0392 81.4665 62.1511C81.2332 62.5579 80.8979 63.3047 80.9189 63.3707C80.9307 63.408 80.8103 63.6815 80.651 63.9785C80.4918 64.2756 80.3615 64.5889 80.3615 64.6749C80.3615 64.8701 79.4786 66.1742 79.0528 66.6078C78.8782 66.7857 78.7353 66.9752 78.7353 67.0288C78.7353 67.0825 78.3694 67.3928 77.9222 67.7185C77.475 68.0442 77.1091 68.3579 77.1091 68.4156C77.1091 68.4733 77.032 68.5205 76.9376 68.5205C76.6723 68.5205 75.7097 69.0596 75.4828 69.3351C75.2121 69.6643 74.2305 70.1953 72.9434 70.7092C72.3649 70.9401 71.861 71.1705 71.8238 71.2209C71.7865 71.2714 71.5426 71.4181 71.2817 71.5468C70.4237 71.9701 68.6142 73.1836 67.8122 73.8736C66.1006 75.346 64.7767 76.7921 64.7767 77.1895C64.7767 77.2549 64.6167 77.4987 64.421 77.7313C64.0831 78.1328 64.0528 78.1424 63.8111 77.9239C63.6714 77.7974 63.557 77.6234 63.557 77.5374C63.557 77.3787 62.5305 76.0754 62.1122 75.7031C61.9866 75.5913 61.4584 75.0576 60.9384 74.5173C60.4184 73.977 59.921 73.5348 59.8332 73.5348C59.7452 73.5348 59.4037 73.3618 59.0742 73.1506C57.2091 71.9546 56.2406 71.3664 56.1363 71.3664C55.9893 71.3664 55.0846 70.9025 54.5449 70.5505C54.3213 70.4046 54.0469 70.2497 53.9351 70.2062C53.8233 70.1627 53.6403 70.0702 53.5285 70.0005C53.4167 69.9307 53.1728 69.8 52.9864 69.71C52.8001 69.6199 52.459 69.4068 52.2283 69.2366C51.9977 69.0664 51.7414 68.9271 51.6587 68.9271C51.4463 68.9271 48.7853 66.3691 48.7853 66.1647C48.7853 66.1188 48.6896 65.9745 48.5727 65.844C47.823 65.0075 46.5822 63.136 46.3343 62.4678C46.173 62.0327 45.9928 61.2371 45.934 60.6999C45.875 60.1627 45.7891 59.6618 45.7427 59.5869C45.6107 59.3734 45.5537 54.6636 45.6801 54.4311C45.7425 54.3168 46.0009 53.7599 46.2545 53.1938C46.5742 52.4802 46.8659 52.0499 47.2062 51.7902C47.476 51.5844 47.8249 51.209 47.9811 50.9561C48.1374 50.7032 48.3314 50.4963 48.4124 50.4963C48.4931 50.4963 48.6559 50.4018 48.7739 50.2865C49.471 49.6053 51.4254 48.6286 51.8062 48.7711C51.8963 48.8049 52.092 48.782 52.2411 48.72C52.6997 48.5296 53.6991 48.7367 54.3309 49.1529ZM59.109 80.9373C59.4918 81.1055 59.6726 81.3077 59.8882 81.809C60.0427 82.168 60.169 82.5265 60.169 82.6058C60.169 82.8096 59.455 82.785 58.8504 82.5602C58.0321 82.2558 57.9542 82.219 57.5264 81.937C57.3028 81.7896 57.0283 81.6308 56.9165 81.5839C56.8047 81.5371 56.5456 81.43 56.3406 81.346C56.1355 81.262 55.9679 81.1491 55.9679 81.0952C55.9679 81.0412 56.1355 80.9071 56.3406 80.7972C56.8119 80.5443 58.3969 80.6245 59.109 80.9373ZM71.7229 80.9624L72.3676 81.2071L71.9781 81.4951C71.7639 81.6535 71.1689 81.9167 70.656 82.0799C70.1429 82.2432 69.4946 82.4931 69.215 82.6352C68.8102 82.8412 68.7068 82.8549 68.7068 82.703C68.7068 82.5981 68.7983 82.4364 68.9101 82.3436C69.0219 82.2508 69.1134 82.0857 69.1134 81.9766C69.1134 81.6476 70.0409 80.9267 70.5781 80.8382C70.8533 80.7928 71.0784 80.7471 71.0784 80.7367C71.0784 80.7261 71.3684 80.8278 71.7229 80.9624Z" fill="black"/>
</svg>
