<svg width="90" height="104" viewBox="0 0 90 104" fill="none" xmlns="http://www.w3.org/2000/svg">
<rect width="90" height="104" rx="45" fill="#90BAF5"/>
<path d="M63.6804 27.7831C62.4698 29.2065 61.2432 30.7755 60.0007 32.4901C58.7901 34.1723 57.5954 35.903 56.4167 37.6823C56.6397 38.1999 56.799 38.7499 56.8946 39.3322C56.9901 39.9145 57.0379 40.5129 57.0379 41.1276C57.0379 42.551 56.799 44.0068 56.3211 45.4949C55.8432 46.9507 55.2379 48.277 54.5052 49.474C53.7724 50.6709 52.9441 51.6576 52.0202 52.434C51.0963 53.2104 50.1884 53.5986 49.2963 53.5986C48.468 53.5986 47.9583 53.3237 47.7671 52.7737C47.576 52.1914 47.4804 51.4797 47.4804 50.6386C47.4804 50.0886 47.6238 49.4578 47.9105 48.7461C48.1972 48.002 48.5636 47.2095 49.0096 46.3684C49.4875 45.5272 50.0131 44.6538 50.5866 43.748C51.1919 42.8422 51.7813 41.9364 52.3547 41.0306C52.8007 40.2865 53.2946 39.5586 53.8361 38.8469C54.3777 38.1352 54.9353 37.4073 55.5087 36.6633C54.9671 35.8545 54.2662 35.2398 53.4061 34.8193L51.8291 36.5662C50.6184 37.9573 49.2963 39.4292 47.8627 40.982C46.4609 42.5348 44.9636 44.0553 43.3707 45.5434C41.7777 46.9992 40.0892 48.3579 38.3052 49.6196C36.553 50.8812 34.7211 51.9003 32.8096 52.6767C32.7777 52.9031 32.7618 53.1134 32.7618 53.3075C32.7618 53.5016 32.7618 53.7119 32.7618 53.9383C32.7618 55.0059 32.937 56.0249 33.2875 56.9954L33.0007 57.0925C32.6503 56.122 32.4751 55.0706 32.4751 53.9383C32.4751 53.7442 32.4751 53.5501 32.4751 53.356C32.4751 53.1619 32.491 52.9678 32.5229 52.7737C31.4078 53.1943 30.2928 53.5178 29.1777 53.7442C28.0627 54.003 26.9158 54.1324 25.737 54.1324C25.0999 54.1324 24.4627 54.0354 23.8255 53.8413C23.2202 53.6472 22.6786 53.3722 22.2007 53.0163C21.7229 52.6605 21.3406 52.2399 21.0538 51.7547C20.7671 51.2694 20.6238 50.7195 20.6238 50.1048C20.6238 49.5225 20.7193 49.0049 20.9105 48.552C21.1335 48.0667 21.3884 47.6624 21.6751 47.3389C21.9937 46.983 22.3123 46.7242 22.6308 46.5625C22.9813 46.3684 23.2839 46.2713 23.5388 46.2713C23.953 46.2713 24.16 46.4816 24.16 46.9021C24.16 47.2256 23.8733 47.4844 23.2999 47.6785C22.7264 47.8726 22.1211 47.9697 21.4839 47.9697C21.2609 48.3255 21.1016 48.6976 21.0061 49.0858C20.9423 49.4416 20.9105 49.7813 20.9105 50.1048C20.9105 50.6548 21.0379 51.1724 21.2928 51.6576C21.5795 52.1105 21.9459 52.4987 22.3919 52.8222C22.8698 53.1457 23.3954 53.3884 23.9689 53.5501C24.5423 53.7442 25.1317 53.8413 25.737 53.8413C26.9158 53.8413 28.0627 53.7119 29.1777 53.4531C30.3246 53.2266 31.4556 52.8869 32.5707 52.434C32.6981 51.1077 33.0007 49.7328 33.4786 48.3094C33.9884 46.8536 34.6096 45.4302 35.3423 44.0391C36.1069 42.6481 36.983 41.3217 37.9707 40.06C38.9901 38.7984 40.0892 37.6985 41.268 36.7603C42.4468 35.7898 43.7052 35.0296 45.0432 34.4796C46.3813 33.8973 47.7671 33.6062 49.2007 33.6062C50.8255 33.6062 52.2114 33.8811 53.3583 34.4311C55.0786 32.5548 56.8468 30.7593 58.6627 29.0448C60.4786 27.2979 62.199 25.745 63.8238 24.3863C65.4485 22.9953 66.914 21.8307 68.2202 20.8925C69.5583 19.922 70.5937 19.2912 71.3264 19L71.4698 19.2426C70.4822 20.2131 69.3671 21.3616 68.1246 22.6879C66.8822 24.0143 65.4007 25.7127 63.6804 27.7831ZM49.2007 33.8973C47.0981 33.8973 45.1069 34.4958 43.2273 35.6928C41.3476 36.8574 39.6751 38.3617 38.2096 40.2056C36.776 42.0172 35.5813 44.0068 34.6255 46.1742C33.6698 48.3094 33.0804 50.3474 32.8574 52.2885C34.7052 51.5121 36.4892 50.5092 38.2096 49.2799C39.9618 48.0182 41.6344 46.6595 43.2273 45.2037C44.8202 43.748 46.3176 42.2599 47.7193 40.7394C49.1211 39.1866 50.4273 37.7308 51.6379 36.3721L53.1671 34.6737C52.0521 34.1561 50.7299 33.8973 49.2007 33.8973ZM53.645 41.9525C53.3901 42.3731 52.9441 43.0363 52.3069 43.9421C51.7016 44.8479 51.0804 45.8184 50.4432 46.8536C49.8061 47.8565 49.2485 48.8431 48.7707 49.8137C48.2928 50.7842 48.0538 51.5606 48.0538 52.1429C48.0538 52.4664 48.1335 52.7414 48.2928 52.9678C48.4839 53.1943 48.8184 53.3075 49.2963 53.3075C50.1565 53.3075 51.0326 52.9355 51.9246 52.1914C52.8167 51.4473 53.6131 50.493 54.314 49.3284C55.0468 48.1314 55.6361 46.8213 56.0822 45.3978C56.5282 43.9421 56.7512 42.5187 56.7512 41.1276C56.7512 39.9306 56.576 38.8793 56.2255 37.9734C55.7795 38.6528 55.3335 39.3322 54.8875 40.0115C54.4733 40.6585 54.0592 41.3055 53.645 41.9525ZM63.2503 27.589C64.7795 25.745 66.1653 24.1922 67.4078 22.9306C68.6822 21.6689 69.7813 20.569 70.7052 19.6308C69.845 20.0837 68.7777 20.7954 67.5034 21.7659C66.2291 22.7041 64.8273 23.8364 63.2981 25.1627C61.7689 26.4891 60.16 27.961 58.4715 29.5785C56.8149 31.1637 55.1901 32.8298 53.5972 34.5767C54.0432 34.8031 54.4415 35.0781 54.7919 35.4016C55.1423 35.7251 55.445 36.0648 55.6999 36.4206C56.9742 34.8355 58.2645 33.2988 59.5707 31.8107C60.9087 30.3226 62.1353 28.9154 63.2503 27.589Z" fill="#F7FAFF"/>
<path d="M72 50.644C69.8018 51.7439 67.8584 52.9085 66.1699 54.1378C64.5133 55.3671 63 56.6773 61.6301 58.0684C62.1717 59.5565 62.4425 61.1255 62.4425 62.7753C62.4425 65.6869 61.8053 68.4366 60.531 71.0247C59.2885 73.6127 57.6319 75.8934 55.5611 77.8668C53.4903 79.8078 51.1327 81.3606 48.4885 82.5252C45.8442 83.6575 43.1522 84.2236 40.4124 84.2236C39.7752 84.2236 39.1221 84.1751 38.4531 84.078C37.8159 84.0133 37.1469 83.9001 36.446 83.7383C34.9805 84.1912 33.4035 84.5147 31.715 84.7088C30.0584 84.9029 28.2265 85 26.2195 85C24.8177 85 23.5912 84.9029 22.5398 84.7088C21.5204 84.5471 20.6761 84.3206 20.0071 84.0295C19.3381 83.7383 18.8283 83.431 18.4779 83.1075C18.1593 82.7517 18 82.412 18 82.0885C18 81.6032 18.3186 81.1988 18.9558 80.8753C19.6248 80.5195 20.6124 80.3416 21.9186 80.3416C22.9699 80.3416 24.085 80.4548 25.2637 80.6812C26.4743 80.9077 27.685 81.1827 28.8956 81.5062C30.1062 81.7973 31.3168 82.1208 32.5274 82.4767C33.7699 82.8325 34.9646 83.1399 36.1115 83.3987C36.8124 83.1399 37.4814 82.8649 38.1186 82.5737C38.7558 82.2502 39.3929 81.9105 40.0301 81.5547C41.846 80.4548 43.5823 79.0475 45.2389 77.333C46.8956 75.5861 48.5044 73.7097 50.0655 71.704C51.6584 69.6983 53.2354 67.6441 54.7965 65.5413C56.3575 63.4385 57.9664 61.4813 59.623 59.6697L61.2478 57.9228C60.4513 55.9818 59.0655 54.3804 57.0903 53.1188C55.115 51.8571 52.423 51.2263 49.0142 51.2263C47.1027 51.2263 45.223 51.5336 43.3752 52.1483C41.5274 52.7306 39.7752 53.5232 38.1186 54.526C36.4619 55.5289 34.9327 56.6935 33.531 58.0199C32.1292 59.3139 30.9027 60.6564 29.8513 62.0475C28.8319 63.4385 28.0354 64.8458 27.4619 66.2692C26.8885 67.6602 26.6018 68.9543 26.6018 70.1512C26.6018 71.6717 27.0637 72.9333 27.9876 73.9362C28.9115 74.9391 30.4885 75.4405 32.7186 75.4405C34.6301 75.4405 36.4301 75.0361 38.1186 74.2273C39.8389 73.3862 41.3204 72.3672 42.5628 71.1702C43.8372 69.9733 44.8407 68.6954 45.5735 67.3367C46.3062 65.9457 46.6726 64.7164 46.6726 63.6488C46.6726 62.8077 46.4018 62.1122 45.8602 61.5622C45.3504 61.0123 44.5062 60.7373 43.3274 60.7373C42.4354 60.7373 41.4796 60.9476 40.4602 61.3681C39.4407 61.7563 38.4372 62.3224 37.4496 63.0665C36.4938 63.7782 35.6018 64.6355 34.7735 65.6383C33.9451 66.6412 33.2761 67.7249 32.7664 68.8895L32.4796 68.7925C32.9894 67.5955 33.6584 66.4956 34.4867 65.4928C35.3469 64.4576 36.2708 63.5679 37.2584 62.8239C38.2779 62.0798 39.3133 61.4975 40.3646 61.077C41.4159 60.6564 42.4035 60.4461 43.3274 60.4461C44.6018 60.4461 45.5257 60.7535 46.0991 61.3681C46.6726 61.9504 46.9593 62.7106 46.9593 63.6488C46.9593 64.7487 46.577 65.9942 45.8124 67.3853C45.0796 68.7763 44.0602 70.1027 42.754 71.3643C41.4796 72.5937 39.9823 73.6289 38.2619 74.47C36.5416 75.3111 34.6938 75.7316 32.7186 75.7316C31.5717 75.7316 30.5681 75.5699 29.708 75.2464C28.8478 74.9229 28.131 74.5023 27.5575 73.9847C26.9841 73.4348 26.554 72.8039 26.2673 72.0922C26.0124 71.3482 25.885 70.5718 25.885 69.763C25.885 68.3719 26.1558 66.9485 26.6973 65.4928C27.2708 64.037 28.0513 62.6136 29.0389 61.2225C30.0584 59.8315 31.269 58.5213 32.6708 57.292C34.0726 56.0303 35.6336 54.9304 37.354 53.9922C39.0743 53.0541 40.9062 52.31 42.8496 51.7601C44.8248 51.2101 46.8796 50.9351 49.0142 50.9351C50.7345 50.9351 52.2637 51.1131 53.6018 51.4689C54.9717 51.7924 56.1664 52.2615 57.1858 52.8762C58.2372 53.4585 59.1133 54.1702 59.8142 55.0113C60.515 55.82 61.0726 56.7258 61.4867 57.7287C62.8885 56.3376 64.4177 55.0436 66.0743 53.8467C67.731 52.6497 69.6743 51.4851 71.9044 50.3528L72 50.644ZM62.1558 62.7753C62.1558 61.1578 61.9009 59.6697 61.3912 58.311C61.1363 58.5698 60.8814 58.8448 60.6265 59.1359C60.4035 59.3947 60.1805 59.6535 59.9575 59.9123C58.3965 61.724 56.931 63.6973 55.5611 65.8325C54.223 67.9352 52.8212 70.0218 51.3558 72.0922C49.8903 74.1303 48.2655 76.0551 46.4814 77.8668C44.7292 79.646 42.6584 81.118 40.269 82.2826C39.7274 82.5414 39.1858 82.784 38.6442 83.0105C38.1345 83.2046 37.5929 83.3825 37.0195 83.5442C38.2938 83.803 39.4248 83.9324 40.4124 83.9324C43.1522 83.9324 45.8283 83.3663 48.4407 82.234C51.0531 81.1018 53.3628 79.5652 55.3699 77.6241C57.4089 75.6831 59.0496 73.4348 60.292 70.8791C61.5345 68.3234 62.1558 65.6222 62.1558 62.7753ZM26.2195 84.7088C28.0991 84.7088 29.7876 84.6118 31.285 84.4177C32.7823 84.2236 34.1841 83.9324 35.4903 83.5442C34.3434 83.2854 33.1646 82.9943 31.954 82.6708C30.7752 82.3149 29.5965 81.9914 28.4177 81.7003C27.2708 81.4091 26.1398 81.1665 25.0248 80.9724C23.9097 80.7459 22.8743 80.6327 21.9186 80.6327C20.708 80.6327 19.8 80.7783 19.1947 81.0694C18.5894 81.3606 18.2867 81.7003 18.2867 82.0885C18.2867 82.7031 18.9239 83.2854 20.1982 83.8354C21.5044 84.4177 23.5115 84.7088 26.2195 84.7088Z" fill="#F7FAFF"/>
</svg>
