<svg xmlns="http://www.w3.org/2000/svg" width="90" height="92" viewBox="0 0 90 92" fill="none">
  <rect y="-12" width="90" height="104" rx="45" fill="white"/>
  <path d="M63.6804 15.7831C62.4698 17.2065 61.2432 18.7755 60.0007 20.4901C58.7901 22.1723 57.5954 23.903 56.4167 25.6823C56.6397 26.1999 56.799 26.7499 56.8946 27.3322C56.9901 27.9145 57.0379 28.5129 57.0379 29.1276C57.0379 30.551 56.799 32.0068 56.3211 33.4949C55.8432 34.9507 55.2379 36.277 54.5052 37.474C53.7724 38.6709 52.9441 39.6576 52.0202 40.434C51.0963 41.2104 50.1884 41.5986 49.2963 41.5986C48.468 41.5986 47.9583 41.3237 47.7671 40.7737C47.576 40.1914 47.4804 39.4797 47.4804 38.6386C47.4804 38.0886 47.6238 37.4578 47.9105 36.7461C48.1972 36.002 48.5636 35.2095 49.0096 34.3684C49.4875 33.5272 50.0131 32.6538 50.5866 31.748C51.1919 30.8422 51.7813 29.9364 52.3547 29.0306C52.8007 28.2865 53.2946 27.5586 53.8361 26.8469C54.3777 26.1352 54.9353 25.4073 55.5087 24.6633C54.9671 23.8545 54.2662 23.2398 53.4061 22.8193L51.8291 24.5662C50.6184 25.9573 49.2963 27.4292 47.8627 28.982C46.4609 30.5348 44.9636 32.0553 43.3707 33.5434C41.7777 34.9992 40.0892 36.3579 38.3052 37.6196C36.553 38.8812 34.7211 39.9003 32.8096 40.6767C32.7777 40.9031 32.7618 41.1134 32.7618 41.3075C32.7618 41.5016 32.7618 41.7119 32.7618 41.9383C32.7618 43.0059 32.937 44.0249 33.2875 44.9954L33.0007 45.0925C32.6503 44.122 32.4751 43.0706 32.4751 41.9383C32.4751 41.7442 32.4751 41.5501 32.4751 41.356C32.4751 41.1619 32.491 40.9678 32.5229 40.7737C31.4078 41.1943 30.2928 41.5178 29.1777 41.7442C28.0627 42.003 26.9158 42.1324 25.737 42.1324C25.0999 42.1324 24.4627 42.0354 23.8255 41.8413C23.2202 41.6472 22.6786 41.3722 22.2007 41.0163C21.7229 40.6605 21.3406 40.2399 21.0538 39.7547C20.7671 39.2694 20.6238 38.7195 20.6238 38.1048C20.6238 37.5225 20.7193 37.0049 20.9105 36.552C21.1335 36.0667 21.3884 35.6624 21.6751 35.3389C21.9937 34.983 22.3123 34.7242 22.6308 34.5625C22.9813 34.3684 23.2839 34.2713 23.5388 34.2713C23.953 34.2713 24.16 34.4816 24.16 34.9021C24.16 35.2256 23.8733 35.4844 23.2999 35.6785C22.7264 35.8726 22.1211 35.9697 21.4839 35.9697C21.2609 36.3255 21.1016 36.6976 21.0061 37.0858C20.9423 37.4416 20.9105 37.7813 20.9105 38.1048C20.9105 38.6548 21.0379 39.1724 21.2928 39.6576C21.5795 40.1105 21.9459 40.4987 22.3919 40.8222C22.8698 41.1457 23.3954 41.3884 23.9689 41.5501C24.5423 41.7442 25.1317 41.8413 25.737 41.8413C26.9158 41.8413 28.0627 41.7119 29.1777 41.4531C30.3246 41.2266 31.4556 40.8869 32.5707 40.434C32.6981 39.1077 33.0007 37.7328 33.4786 36.3094C33.9884 34.8536 34.6096 33.4302 35.3423 32.0391C36.1069 30.6481 36.983 29.3217 37.9707 28.06C38.9901 26.7984 40.0892 25.6985 41.268 24.7603C42.4468 23.7898 43.7052 23.0296 45.0432 22.4796C46.3813 21.8973 47.7671 21.6062 49.2007 21.6062C50.8255 21.6062 52.2114 21.8811 53.3583 22.4311C55.0786 20.5548 56.8468 18.7593 58.6627 17.0448C60.4786 15.2979 62.199 13.745 63.8238 12.3863C65.4485 10.9953 66.914 9.83065 68.2202 8.89249C69.5583 7.92198 70.5937 7.29115 71.3264 7L71.4698 7.24263C70.4822 8.21314 69.3671 9.36157 68.1246 10.6879C66.8822 12.0143 65.4007 13.7127 63.6804 15.7831ZM49.2007 21.8973C47.0981 21.8973 45.1069 22.4958 43.2273 23.6928C41.3476 24.8574 39.6751 26.3617 38.2096 28.2056C36.776 30.0172 35.5813 32.0068 34.6255 34.1742C33.6698 36.3094 33.0804 38.3474 32.8574 40.2885C34.7052 39.5121 36.4892 38.5092 38.2096 37.2799C39.9618 36.0182 41.6344 34.6595 43.2273 33.2037C44.8202 31.748 46.3176 30.2599 47.7193 28.7394C49.1211 27.1866 50.4273 25.7308 51.6379 24.3721L53.1671 22.6737C52.0521 22.1561 50.7299 21.8973 49.2007 21.8973ZM53.645 29.9525C53.3901 30.3731 52.9441 31.0363 52.3069 31.9421C51.7016 32.8479 51.0804 33.8184 50.4432 34.8536C49.8061 35.8565 49.2485 36.8431 48.7707 37.8137C48.2928 38.7842 48.0538 39.5606 48.0538 40.1429C48.0538 40.4664 48.1335 40.7414 48.2928 40.9678C48.4839 41.1943 48.8184 41.3075 49.2963 41.3075C50.1565 41.3075 51.0326 40.9355 51.9246 40.1914C52.8167 39.4473 53.6131 38.493 54.314 37.3284C55.0468 36.1314 55.6361 34.8213 56.0822 33.3978C56.5282 31.9421 56.7512 30.5187 56.7512 29.1276C56.7512 27.9306 56.576 26.8793 56.2255 25.9734C55.7795 26.6528 55.3335 27.3322 54.8875 28.0115C54.4733 28.6585 54.0592 29.3055 53.645 29.9525ZM63.2503 15.589C64.7795 13.745 66.1653 12.1922 67.4078 10.9306C68.6822 9.6689 69.7813 8.56899 70.7052 7.63083C69.845 8.08374 68.7777 8.79544 67.5034 9.76595C66.2291 10.7041 64.8273 11.8364 63.2981 13.1627C61.7689 14.4891 60.16 15.961 58.4715 17.5785C56.8149 19.1637 55.1901 20.8298 53.5972 22.5767C54.0432 22.8031 54.4415 23.0781 54.7919 23.4016C55.1423 23.7251 55.445 24.0648 55.6999 24.4206C56.9742 22.8355 58.2645 21.2988 59.5707 19.8107C60.9087 18.3226 62.1353 16.9154 63.2503 15.589Z" fill="#456797"/>
  <path d="M72 38.644C69.8018 39.7439 67.8584 40.9085 66.1699 42.1378C64.5133 43.3671 63 44.6773 61.6301 46.0684C62.1717 47.5565 62.4425 49.1255 62.4425 50.7753C62.4425 53.6869 61.8053 56.4366 60.531 59.0247C59.2885 61.6127 57.6319 63.8934 55.5611 65.8668C53.4903 67.8078 51.1327 69.3606 48.4885 70.5252C45.8442 71.6575 43.1522 72.2236 40.4124 72.2236C39.7752 72.2236 39.1221 72.1751 38.4531 72.078C37.8159 72.0133 37.1469 71.9001 36.446 71.7383C34.9805 72.1912 33.4035 72.5147 31.715 72.7088C30.0584 72.9029 28.2265 73 26.2195 73C24.8177 73 23.5912 72.9029 22.5398 72.7088C21.5204 72.5471 20.6761 72.3206 20.0071 72.0295C19.3381 71.7383 18.8283 71.431 18.4779 71.1075C18.1593 70.7517 18 70.412 18 70.0885C18 69.6032 18.3186 69.1988 18.9558 68.8753C19.6248 68.5195 20.6124 68.3416 21.9186 68.3416C22.9699 68.3416 24.085 68.4548 25.2637 68.6812C26.4743 68.9077 27.685 69.1827 28.8956 69.5062C30.1062 69.7973 31.3168 70.1208 32.5274 70.4767C33.7699 70.8325 34.9646 71.1399 36.1115 71.3987C36.8124 71.1399 37.4814 70.8649 38.1186 70.5737C38.7558 70.2502 39.3929 69.9105 40.0301 69.5547C41.846 68.4548 43.5823 67.0475 45.2389 65.333C46.8956 63.5861 48.5044 61.7097 50.0655 59.704C51.6584 57.6983 53.2354 55.6441 54.7965 53.5413C56.3575 51.4385 57.9664 49.4813 59.623 47.6697L61.2478 45.9228C60.4513 43.9818 59.0655 42.3804 57.0903 41.1188C55.115 39.8571 52.423 39.2263 49.0142 39.2263C47.1027 39.2263 45.223 39.5336 43.3752 40.1483C41.5274 40.7306 39.7752 41.5232 38.1186 42.526C36.4619 43.5289 34.9327 44.6935 33.531 46.0199C32.1292 47.3139 30.9027 48.6564 29.8513 50.0475C28.8319 51.4385 28.0354 52.8458 27.4619 54.2692C26.8885 55.6602 26.6018 56.9543 26.6018 58.1512C26.6018 59.6717 27.0637 60.9333 27.9876 61.9362C28.9115 62.9391 30.4885 63.4405 32.7186 63.4405C34.6301 63.4405 36.4301 63.0361 38.1186 62.2273C39.8389 61.3862 41.3204 60.3672 42.5628 59.1702C43.8372 57.9733 44.8407 56.6954 45.5735 55.3367C46.3062 53.9457 46.6726 52.7164 46.6726 51.6488C46.6726 50.8077 46.4018 50.1122 45.8602 49.5622C45.3504 49.0123 44.5062 48.7373 43.3274 48.7373C42.4354 48.7373 41.4796 48.9476 40.4602 49.3681C39.4407 49.7563 38.4372 50.3224 37.4496 51.0665C36.4938 51.7782 35.6018 52.6355 34.7735 53.6383C33.9451 54.6412 33.2761 55.7249 32.7664 56.8895L32.4796 56.7925C32.9894 55.5955 33.6584 54.4956 34.4867 53.4928C35.3469 52.4576 36.2708 51.5679 37.2584 50.8239C38.2779 50.0798 39.3133 49.4975 40.3646 49.077C41.4159 48.6564 42.4035 48.4461 43.3274 48.4461C44.6018 48.4461 45.5257 48.7535 46.0991 49.3681C46.6726 49.9504 46.9593 50.7106 46.9593 51.6488C46.9593 52.7487 46.577 53.9942 45.8124 55.3853C45.0796 56.7763 44.0602 58.1027 42.754 59.3643C41.4796 60.5937 39.9823 61.6289 38.2619 62.47C36.5416 63.3111 34.6938 63.7316 32.7186 63.7316C31.5717 63.7316 30.5681 63.5699 29.708 63.2464C28.8478 62.9229 28.131 62.5023 27.5575 61.9847C26.9841 61.4348 26.554 60.8039 26.2673 60.0922C26.0124 59.3482 25.885 58.5718 25.885 57.763C25.885 56.3719 26.1558 54.9485 26.6973 53.4928C27.2708 52.037 28.0513 50.6136 29.0389 49.2225C30.0584 47.8315 31.269 46.5213 32.6708 45.292C34.0726 44.0303 35.6336 42.9304 37.354 41.9922C39.0743 41.0541 40.9062 40.31 42.8496 39.7601C44.8248 39.2101 46.8796 38.9351 49.0142 38.9351C50.7345 38.9351 52.2637 39.1131 53.6018 39.4689C54.9717 39.7924 56.1664 40.2615 57.1858 40.8762C58.2372 41.4585 59.1133 42.1702 59.8142 43.0113C60.515 43.82 61.0726 44.7258 61.4867 45.7287C62.8885 44.3376 64.4177 43.0436 66.0743 41.8467C67.731 40.6497 69.6743 39.4851 71.9044 38.3528L72 38.644ZM62.1558 50.7753C62.1558 49.1578 61.9009 47.6697 61.3912 46.311C61.1363 46.5698 60.8814 46.8448 60.6265 47.1359C60.4035 47.3947 60.1805 47.6535 59.9575 47.9123C58.3965 49.724 56.931 51.6973 55.5611 53.8325C54.223 55.9352 52.8212 58.0218 51.3558 60.0922C49.8903 62.1303 48.2655 64.0551 46.4814 65.8668C44.7292 67.646 42.6584 69.118 40.269 70.2826C39.7274 70.5414 39.1858 70.784 38.6442 71.0105C38.1345 71.2046 37.5929 71.3825 37.0195 71.5442C38.2938 71.803 39.4248 71.9324 40.4124 71.9324C43.1522 71.9324 45.8283 71.3663 48.4407 70.234C51.0531 69.1018 53.3628 67.5652 55.3699 65.6241C57.4089 63.6831 59.0496 61.4348 60.292 58.8791C61.5345 56.3234 62.1558 53.6222 62.1558 50.7753ZM26.2195 72.7088C28.0991 72.7088 29.7876 72.6118 31.285 72.4177C32.7823 72.2236 34.1841 71.9324 35.4903 71.5442C34.3434 71.2854 33.1646 70.9943 31.954 70.6708C30.7752 70.3149 29.5965 69.9914 28.4177 69.7003C27.2708 69.4091 26.1398 69.1665 25.0248 68.9724C23.9097 68.7459 22.8743 68.6327 21.9186 68.6327C20.708 68.6327 19.8 68.7783 19.1947 69.0694C18.5894 69.3606 18.2867 69.7003 18.2867 70.0885C18.2867 70.7031 18.9239 71.2854 20.1982 71.8354C21.5044 72.4177 23.5115 72.7088 26.2195 72.7088Z" fill="#456797"/>
</svg>